<svg width="324" height="193" viewBox="0 0 324 193" fill="none" xmlns="http://www.w3.org/2000/svg">
<g clip-path="url(#clip0_265_497)">
<path d="M19.091 148.062C9.55457 144.597 1.27629 136.308 0.226135 126.228C9.48399 132.226 20.5679 134.761 31.5169 133.384C35.7375 132.837 40.3749 131.79 43.9866 134.039C46.2339 135.438 47.6291 137.922 48.2692 140.488C48.9092 143.055 48.8803 145.734 48.8476 148.379L49.1446 148.969C39.1827 150.9 28.6275 151.526 19.091 148.062Z" fill="#F0F0F0"/>
<path d="M0.433036 126.177C5.29282 133.02 12.1877 138.159 20.1383 140.864C21.8396 141.477 23.6269 141.819 25.4345 141.875C27.1972 141.874 28.9273 141.401 30.4451 140.506C31.8772 139.7 33.2485 138.71 34.8518 138.266C35.6759 138.05 36.5362 138.012 37.3764 138.152C38.2166 138.292 39.0176 138.608 39.727 139.078C41.5252 140.206 42.8104 141.912 44.0092 143.623C45.3403 145.523 46.6927 147.518 48.7706 148.672C49.0223 148.812 48.7904 149.194 48.5391 149.054C44.924 147.047 43.5854 142.79 40.5083 140.201C39.0725 138.994 37.2636 138.211 35.366 138.601C33.7067 138.942 32.2917 139.962 30.8488 140.791C29.3809 141.686 27.716 142.208 25.9994 142.312C24.1947 142.347 22.3972 142.075 20.6839 141.508C16.8061 140.292 13.1439 138.476 9.83124 136.124C6.03565 133.461 2.72414 130.169 0.0399939 126.391C-0.12604 126.157 0.268087 125.945 0.433036 126.177Z" fill="white"/>
<path d="M17.5269 140.144C16.8913 141.414 15.8241 142.418 14.516 142.975C13.2079 143.533 11.744 143.607 10.3857 143.186C10.1112 143.1 10.2324 142.67 10.5073 142.756C11.7713 143.151 13.1349 143.081 14.352 142.56C15.5691 142.038 16.5594 141.099 17.1443 139.913C17.2717 139.655 17.6536 139.887 17.5269 140.144Z" fill="white"/>
<path d="M29.773 141.011C28.8775 138.248 26.9724 135.924 24.4376 134.503C24.1863 134.362 24.4182 133.98 24.6691 134.12C27.3041 135.605 29.2817 138.027 30.2072 140.904C30.2953 141.178 29.8605 141.284 29.773 141.011Z" fill="white"/>
<path d="M6.54127 133.151C6.88979 132.711 7.12331 132.191 7.22087 131.638C7.31843 131.085 7.27697 130.517 7.10021 129.984C7.00875 129.711 7.44364 129.606 7.53451 129.877C7.72705 130.467 7.77206 131.095 7.66563 131.706C7.5592 132.317 7.30455 132.892 6.92394 133.383C6.89194 133.432 6.84238 133.467 6.78534 133.481C6.7283 133.495 6.66806 133.487 6.61685 133.458C6.56634 133.427 6.53006 133.378 6.51591 133.32C6.50176 133.263 6.51087 133.202 6.54127 133.151Z" fill="white"/>
<path d="M24.2949 101.739C24.3569 101.908 24.4189 102.076 24.4845 102.246C25.3293 104.512 26.3571 106.705 27.5576 108.805C27.6478 108.969 27.7418 109.133 27.8365 109.294C30.7828 114.321 34.6381 118.759 39.2062 122.38C41.0253 123.82 42.9514 125.119 44.9679 126.266C47.7528 127.851 50.8986 129.348 52.9366 131.69C53.152 131.932 53.3522 132.187 53.536 132.454L49.8421 148.561C49.8153 148.593 49.7921 148.627 49.7653 148.659L49.6473 149.309C49.5391 149.257 49.4281 149.201 49.3199 149.149C49.2571 149.119 49.1951 149.086 49.1322 149.056C49.0906 149.035 49.049 149.014 49.0102 148.997C48.9963 148.99 48.9824 148.983 48.9722 148.977C48.9334 148.96 48.8992 148.941 48.8641 148.925C48.2425 148.613 47.6221 148.295 47.0028 147.973C46.9991 147.972 46.9991 147.972 46.9963 147.968C42.2538 145.558 37.8143 142.595 33.7708 139.141C33.6515 139.036 33.5285 138.931 33.4109 138.819C31.6323 137.241 29.9858 135.52 28.4878 133.674C27.6708 132.66 26.9057 131.606 26.1954 130.516C24.3657 127.694 22.9916 124.602 22.1238 121.354C20.3947 114.878 20.7585 107.922 24.0399 102.175C24.1239 102.028 24.2072 101.885 24.2949 101.739Z" fill="#F0F0F0"/>
<path d="M24.4913 101.822C24.2469 110.207 26.6541 118.457 31.3712 125.398C32.3601 126.91 33.5815 128.257 34.9904 129.39C36.3986 130.449 38.065 131.112 39.8164 131.31C41.4457 131.527 43.1376 131.561 44.6856 132.17C45.4734 132.494 46.1838 132.98 46.7702 133.597C47.3566 134.214 47.8058 134.948 48.0883 135.751C48.8443 137.732 48.8423 139.867 48.7677 141.954C48.685 144.272 48.5622 146.678 49.5258 148.849C49.6425 149.112 49.2271 149.277 49.1105 149.015C47.4341 145.238 48.9318 141.034 48.0352 137.117C47.6168 135.29 46.6444 133.577 44.8941 132.747C43.3635 132.022 41.6189 131.985 39.9673 131.779C38.2559 131.611 36.6117 131.027 35.1784 130.078C33.7163 129.021 32.445 127.723 31.4189 126.24C29.0555 122.937 27.2266 119.284 25.9993 115.415C24.574 111.006 23.9144 106.387 24.0489 101.756C24.0573 101.469 24.4997 101.537 24.4913 101.822Z" fill="white"/>
<path d="M29.7205 123.252C28.4471 123.884 26.99 124.044 25.6095 123.702C24.2291 123.361 23.0152 122.54 22.1845 121.387C22.0173 121.153 22.3733 120.883 22.5408 121.117C23.3123 122.192 24.4431 122.956 25.7293 123.272C27.0154 123.587 28.372 123.433 29.5544 122.837C29.8115 122.708 29.9762 123.124 29.7205 123.252Z" fill="white"/>
<path d="M38.9757 131.308C39.926 128.564 39.8057 125.563 38.639 122.903C38.5231 122.64 38.9385 122.474 39.0542 122.737C40.2632 125.507 40.382 128.63 39.3868 131.484C39.2918 131.756 38.8812 131.578 38.9757 131.308Z" fill="white"/>
<path d="M25.1643 111.063C25.7081 110.921 26.2081 110.646 26.6192 110.263C27.0304 109.881 27.34 109.402 27.5201 108.87C27.6116 108.597 28.0222 108.775 27.9312 109.046C27.7295 109.633 27.3869 110.161 26.9336 110.585C26.4802 111.009 25.9298 111.315 25.3305 111.478C25.2753 111.498 25.2145 111.496 25.1605 111.473C25.1065 111.45 25.0633 111.407 25.0398 111.353C25.0181 111.298 25.019 111.237 25.0423 111.183C25.0656 111.128 25.1095 111.085 25.1643 111.063Z" fill="white"/>
<path d="M307.734 147.729C316.771 143.12 323.967 133.878 323.768 123.745C315.319 130.834 304.631 134.71 293.596 134.687C289.34 134.663 284.609 134.194 281.301 136.869C279.243 138.533 278.164 141.169 277.845 143.795C277.525 146.421 277.884 149.076 278.242 151.696L278.02 152.318C288.144 153.012 298.696 152.338 307.734 147.729Z" fill="#F0F0F0"/>
<path d="M323.557 123.72C319.576 131.107 313.366 137.054 305.808 140.715C304.196 141.532 302.464 142.09 300.677 142.369C298.927 142.584 297.152 142.327 295.536 141.625C294.015 141.001 292.533 140.186 290.887 139.942C290.042 139.83 289.184 139.897 288.367 140.139C287.551 140.381 286.795 140.793 286.148 141.347C284.503 142.687 283.437 144.537 282.458 146.383C281.371 148.433 280.274 150.578 278.354 151.978C278.122 152.148 278.399 152.499 278.631 152.329C281.972 149.893 282.776 145.504 285.511 142.558C286.788 141.183 288.486 140.184 290.418 140.338C292.106 140.473 293.636 141.311 295.17 141.957C296.737 142.665 298.454 142.978 300.17 142.871C301.965 142.684 303.716 142.194 305.346 141.42C309.045 139.738 312.456 137.485 315.454 134.745C318.893 131.636 321.774 127.963 323.973 123.884C324.109 123.631 323.692 123.469 323.557 123.72Z" fill="white"/>
<path d="M308.311 139.679C309.099 140.862 310.281 141.727 311.648 142.12C313.015 142.512 314.477 142.407 315.773 141.822C316.035 141.703 315.862 141.291 315.599 141.41C314.393 141.957 313.032 142.055 311.76 141.687C310.488 141.319 309.389 140.509 308.663 139.403C308.505 139.162 308.154 139.44 308.311 139.679Z" fill="white"/>
<path d="M296.265 142.043C296.814 139.191 298.418 136.651 300.759 134.929C300.991 134.759 300.714 134.408 300.482 134.578C298.05 136.375 296.385 139.022 295.821 141.99C295.767 142.273 296.212 142.324 296.265 142.043Z" fill="white"/>
<path d="M318.353 131.391C317.953 130.997 317.657 130.509 317.492 129.973C317.328 129.436 317.299 128.867 317.409 128.316C317.466 128.034 317.021 127.983 316.964 128.264C316.846 128.872 316.879 129.501 317.059 130.094C317.24 130.688 317.564 131.228 318.002 131.668C318.04 131.712 318.093 131.741 318.151 131.748C318.21 131.755 318.269 131.74 318.316 131.705C318.362 131.668 318.392 131.614 318.399 131.556C318.406 131.497 318.39 131.438 318.353 131.391Z" fill="white"/>
<path d="M296.868 102.396C296.827 102.571 296.787 102.746 296.742 102.923C296.183 105.275 295.433 107.578 294.5 109.809C294.43 109.983 294.357 110.158 294.283 110.329C291.978 115.68 288.698 120.557 284.61 124.712C282.982 126.364 281.23 127.889 279.371 129.276C276.802 131.19 273.864 133.062 272.13 135.637C271.946 135.903 271.778 136.181 271.629 136.468L277.277 152C277.308 152.028 277.335 152.059 277.365 152.088L277.563 152.718C277.663 152.653 277.767 152.584 277.868 152.519C277.926 152.482 277.984 152.441 278.043 152.404C278.081 152.378 278.12 152.351 278.156 152.33C278.169 152.322 278.182 152.313 278.192 152.306C278.228 152.284 278.26 152.261 278.292 152.241C278.871 151.854 279.448 151.463 280.022 151.068C280.026 151.066 280.026 151.066 280.028 151.062C284.438 148.088 288.479 144.602 292.067 140.678C292.173 140.559 292.282 140.44 292.385 140.314C293.956 138.53 295.378 136.62 296.637 134.604C297.323 133.498 297.953 132.358 298.524 131.188C299.992 128.163 300.975 124.926 301.437 121.596C302.356 114.957 301.139 108.099 297.175 102.798C297.073 102.663 296.973 102.53 296.868 102.396Z" fill="#F0F0F0"/>
<path d="M296.683 102.503C297.958 110.795 296.584 119.277 292.757 126.744C291.962 128.367 290.916 129.854 289.657 131.15C288.39 132.374 286.817 133.237 285.104 133.648C283.513 134.064 281.839 134.306 280.377 135.1C279.635 135.518 278.99 136.088 278.484 136.772C277.978 137.457 277.623 138.24 277.441 139.071C276.935 141.131 277.199 143.249 277.53 145.311C277.898 147.601 278.316 149.974 277.627 152.246C277.543 152.522 277.976 152.635 278.059 152.36C279.258 148.406 277.254 144.418 277.662 140.421C277.852 138.556 278.606 136.736 280.241 135.698C281.671 134.791 283.398 134.54 285.012 134.133C286.69 133.756 288.249 132.974 289.555 131.856C290.876 130.628 291.978 129.184 292.814 127.586C294.753 124.018 296.118 120.169 296.86 116.178C297.732 111.628 297.818 106.962 297.114 102.383C297.071 102.099 296.64 102.221 296.683 102.503Z" fill="white"/>
<path d="M294.131 124.412C295.473 124.884 296.939 124.863 298.267 124.355C299.595 123.846 300.698 122.883 301.381 121.637C301.518 121.384 301.131 121.159 300.994 121.412C300.361 122.574 299.332 123.471 298.095 123.942C296.857 124.413 295.492 124.427 294.245 123.98C293.974 123.884 293.862 124.316 294.131 124.412Z" fill="white"/>
<path d="M285.938 133.543C284.657 130.937 284.407 127.944 285.238 125.161C285.32 124.886 284.887 124.772 284.805 125.047C283.946 127.945 284.213 131.059 285.551 133.768C285.679 134.027 286.065 133.8 285.938 133.543Z" fill="white"/>
<path d="M297.153 111.757C296.596 111.682 296.066 111.471 295.611 111.142C295.155 110.812 294.789 110.375 294.545 109.869C294.421 109.61 294.035 109.836 294.159 110.094C294.431 110.652 294.836 111.134 295.338 111.499C295.84 111.864 296.424 112.101 297.039 112.188C297.096 112.202 297.156 112.192 297.207 112.163C297.258 112.133 297.295 112.086 297.312 112.029C297.327 111.972 297.319 111.911 297.289 111.86C297.259 111.809 297.21 111.772 297.153 111.757Z" fill="white"/>
<path d="M282.227 6.63409H218.553V10.7251C218.552 10.9346 218.624 11.1379 218.757 11.3001C218.628 14.4978 218.553 18.58 218.553 23.016V132.391C218.553 142.643 218.965 150.984 219.47 150.984H281.311C281.815 150.984 282.227 142.643 282.227 132.391V23.016C282.227 18.58 282.152 14.4978 282.023 11.3001C282.156 11.1379 282.228 10.9346 282.227 10.7251L282.227 6.63409Z" fill="white"/>
<path d="M281.31 151.426H219.47C218.988 151.426 218.669 151.426 218.38 145.553C218.206 142.029 218.11 137.355 218.11 132.391V23.016C218.11 18.7287 218.183 14.5616 218.314 11.2823C218.397 9.31347 218.491 7.73635 218.595 6.59417C218.798 4.35817 218.992 3.98047 219.47 3.98047H281.31C281.788 3.98047 281.982 4.35817 282.185 6.59417C282.289 7.74067 282.384 9.31779 282.466 11.2815L282.466 11.2823C282.597 14.5581 282.67 18.7252 282.67 23.016V132.391C282.67 137.355 282.574 142.03 282.4 145.553C282.111 151.426 281.792 151.426 281.31 151.426ZM219.721 150.542H281.059C281.379 149.333 281.784 142.771 281.784 132.391V23.016C281.784 18.7369 281.712 14.5828 281.581 11.3186C281.499 9.36897 281.406 7.80632 281.303 6.67407C281.264 6.0659 281.181 5.46134 281.055 4.86502H219.725C219.599 5.46134 219.516 6.0659 219.477 6.67407C219.374 7.802 219.281 9.36465 219.199 11.3186C219.068 14.5856 218.996 18.7401 218.996 23.016V132.391C218.996 142.77 219.401 149.333 219.721 150.542Z" fill="#E4E4E4"/>
<path d="M281.31 4.42267H219.47C219.227 4.42314 218.994 4.51974 218.822 4.69132C218.65 4.86291 218.553 5.0955 218.553 5.33818V10.7251C218.552 10.9346 218.624 11.1379 218.757 11.3001C218.843 11.4061 218.951 11.4917 219.075 11.5506C219.198 11.6095 219.333 11.6402 219.47 11.6406H281.31C281.447 11.6402 281.582 11.6095 281.705 11.5505C281.829 11.4916 281.937 11.4061 282.023 11.3001C282.156 11.1378 282.228 10.9346 282.227 10.7251V5.33818C282.227 5.09552 282.13 4.86293 281.958 4.69134C281.786 4.51975 281.553 4.42314 281.31 4.42267Z" fill="#CACACA"/>
<path d="M223.876 9.06887C224.594 9.06887 225.177 8.48679 225.177 7.76875C225.177 7.05071 224.594 6.46863 223.876 6.46863C223.157 6.46863 222.574 7.05071 222.574 7.76875C222.574 8.48679 223.157 9.06887 223.876 9.06887Z" fill="white"/>
<path d="M228.817 9.06887C229.535 9.06887 230.118 8.48679 230.118 7.76875C230.118 7.05071 229.535 6.46863 228.817 6.46863C228.098 6.46863 227.515 7.05071 227.515 7.76875C227.515 8.48679 228.098 9.06887 228.817 9.06887Z" fill="white"/>
<path d="M233.758 9.06887C234.477 9.06887 235.06 8.48679 235.06 7.76875C235.06 7.05071 234.477 6.46863 233.758 6.46863C233.039 6.46863 232.456 7.05071 232.456 7.76875C232.456 8.48679 233.039 9.06887 233.758 9.06887Z" fill="white"/>
<path d="M276.47 6.03259H270.78C270.668 6.03333 270.562 6.07784 270.483 6.15648C270.404 6.23512 270.36 6.34156 270.359 6.45275C270.358 6.51607 270.373 6.57869 270.404 6.63409C270.437 6.70531 270.491 6.76554 270.557 6.80781C270.624 6.85007 270.701 6.87265 270.78 6.87292H276.47C276.55 6.87331 276.628 6.85106 276.695 6.80877C276.763 6.76648 276.817 6.70589 276.851 6.63409C276.878 6.57754 276.892 6.51546 276.891 6.45275C276.891 6.39756 276.88 6.34291 276.859 6.29191C276.838 6.24092 276.807 6.19459 276.768 6.15557C276.729 6.11654 276.682 6.0856 276.631 6.0645C276.58 6.0434 276.525 6.03256 276.47 6.03259Z" fill="white"/>
<path d="M276.47 7.61151H270.78C270.668 7.61151 270.561 7.65578 270.482 7.73457C270.403 7.81337 270.359 7.92024 270.359 8.03167C270.359 8.14311 270.403 8.24998 270.482 8.32877C270.561 8.40757 270.668 8.45183 270.78 8.45183H276.47C276.582 8.45183 276.689 8.40757 276.768 8.32877C276.847 8.24998 276.891 8.14311 276.891 8.03167C276.891 7.92024 276.847 7.81337 276.768 7.73457C276.689 7.65578 276.582 7.61151 276.47 7.61151Z" fill="white"/>
<path d="M276.47 9.19043H270.78C270.668 9.19043 270.561 9.2347 270.482 9.3135C270.403 9.39229 270.359 9.49916 270.359 9.61059C270.359 9.72202 270.403 9.82889 270.482 9.90769C270.561 9.98649 270.668 10.0308 270.78 10.0308H276.47C276.582 10.0308 276.689 9.98649 276.768 9.90769C276.847 9.82889 276.891 9.72202 276.891 9.61059C276.891 9.49916 276.847 9.39229 276.768 9.3135C276.689 9.2347 276.582 9.19043 276.47 9.19043Z" fill="white"/>
<path d="M256.543 23.4494H244.835C244.248 23.4496 243.684 23.6827 243.269 24.0974C242.854 24.512 242.621 25.0744 242.621 25.6608V35.7889C242.622 36.3751 242.855 36.937 243.27 37.3515C243.685 37.766 244.248 37.9993 244.835 38.0003H256.543C257.13 37.9986 257.692 37.765 258.107 37.3507C258.522 36.9363 258.755 36.3749 258.757 35.7889V25.6608C258.756 25.0746 258.523 24.5127 258.108 24.0982C257.693 23.6837 257.13 23.4504 256.543 23.4494Z" fill="#C190FF"/>
<path d="M271.09 44.6167H230.283C230.017 44.6167 229.761 44.7225 229.573 44.9107C229.384 45.099 229.278 45.3544 229.278 45.6207C229.278 45.8869 229.384 46.1423 229.573 46.3306C229.761 46.5188 230.017 46.6246 230.283 46.6246H271.09C271.357 46.6246 271.612 46.5188 271.801 46.3306C271.989 46.1423 272.095 45.8869 272.095 45.6207C272.095 45.3544 271.989 45.099 271.801 44.9107C271.612 44.7225 271.357 44.6167 271.09 44.6167Z" fill="#E4E4E4"/>
<path d="M245.782 49.3225H230.283C230.017 49.3225 229.761 49.4283 229.573 49.6166C229.384 49.8049 229.278 50.0602 229.278 50.3265C229.278 50.5928 229.384 50.8481 229.573 51.0364C229.761 51.2247 230.017 51.3304 230.283 51.3304H245.782C246.049 51.3304 246.305 51.2247 246.493 51.0364C246.682 50.8481 246.788 50.5928 246.788 50.3265C246.788 50.0602 246.682 49.8049 246.493 49.6166C246.305 49.4283 246.049 49.3225 245.782 49.3225Z" fill="#E4E4E4"/>
<path d="M256.543 67.2346H244.835C244.248 67.2349 243.684 67.4679 243.269 67.8826C242.854 68.2972 242.621 68.8596 242.621 69.446V79.5741C242.622 80.1603 242.855 80.7222 243.27 81.1367C243.685 81.5512 244.248 81.7845 244.835 81.7855H256.543C257.13 81.7838 257.692 81.5502 258.107 81.1359C258.522 80.7215 258.755 80.1601 258.757 79.5741V69.446C258.756 68.8598 258.523 68.2979 258.108 67.8834C257.693 67.4689 257.13 67.2356 256.543 67.2346Z" fill="#C190FF"/>
<path d="M271.09 88.4019H230.283C230.017 88.4019 229.761 88.5077 229.573 88.696C229.384 88.8842 229.278 89.1396 229.278 89.4059C229.278 89.6721 229.384 89.9275 229.573 90.1158C229.761 90.3041 230.017 90.4098 230.283 90.4098H271.09C271.357 90.4098 271.612 90.3041 271.801 90.1158C271.989 89.9275 272.095 89.6721 272.095 89.4059C272.095 89.1396 271.989 88.8842 271.801 88.696C271.612 88.5077 271.357 88.4019 271.09 88.4019Z" fill="#E4E4E4"/>
<path d="M245.782 93.1077H230.283C230.017 93.1077 229.761 93.2135 229.573 93.4018C229.384 93.5901 229.278 93.8454 229.278 94.1117C229.278 94.378 229.384 94.6333 229.573 94.8216C229.761 95.0099 230.017 95.1157 230.283 95.1157H245.782C246.049 95.1157 246.305 95.0099 246.493 94.8216C246.682 94.6333 246.788 94.378 246.788 94.1117C246.788 93.8454 246.682 93.5901 246.493 93.4018C246.305 93.2135 246.049 93.1077 245.782 93.1077Z" fill="#E4E4E4"/>
<path d="M256.543 111.02H244.835C244.248 111.02 243.684 111.253 243.269 111.668C242.854 112.083 242.621 112.645 242.621 113.231V123.359C242.622 123.946 242.855 124.507 243.27 124.922C243.685 125.336 244.248 125.57 244.835 125.571H256.543C257.13 125.569 257.692 125.335 258.107 124.921C258.522 124.507 258.755 123.945 258.757 123.359V113.231C258.756 112.645 258.523 112.083 258.108 111.669C257.693 111.254 257.13 111.021 256.543 111.02Z" fill="#C190FF"/>
<path d="M271.09 132.187H230.283C230.017 132.187 229.761 132.293 229.573 132.481C229.384 132.669 229.278 132.925 229.278 133.191C229.278 133.457 229.384 133.713 229.573 133.901C229.761 134.089 230.017 134.195 230.283 134.195H271.09C271.357 134.195 271.612 134.089 271.801 133.901C271.989 133.713 272.095 133.457 272.095 133.191C272.095 132.925 271.989 132.669 271.801 132.481C271.612 132.293 271.357 132.187 271.09 132.187Z" fill="#E4E4E4"/>
<path d="M245.782 136.893H230.283C230.017 136.893 229.761 136.999 229.573 137.187C229.384 137.375 229.278 137.631 229.278 137.897C229.278 138.163 229.384 138.419 229.573 138.607C229.761 138.795 230.017 138.901 230.283 138.901H245.782C246.049 138.901 246.305 138.795 246.493 138.607C246.682 138.419 246.788 138.163 246.788 137.897C246.788 137.631 246.682 137.375 246.493 137.187C246.305 136.999 246.049 136.893 245.782 136.893Z" fill="#E4E4E4"/>
<path d="M201.19 1.35771C201.189 1.11506 201.092 0.882471 200.921 0.710881C200.749 0.539291 200.516 0.442677 200.273 0.4422H36.5818C36.3388 0.442668 36.1059 0.539268 35.9341 0.710854C35.7622 0.88244 35.6655 1.11504 35.665 1.35771V6.74462C35.6642 6.9689 35.748 7.18524 35.8998 7.35054C35.7536 11.0082 35.665 15.829 35.665 21.1097V142.696C35.665 154.097 36.0769 163.368 36.5818 163.368H200.273C200.778 163.368 201.19 154.097 201.19 142.696V21.1097C201.19 15.829 201.101 11.0082 200.955 7.35054C201.107 7.18521 201.19 6.96887 201.19 6.74462V1.35771Z" fill="white"/>
<path d="M200.273 163.81H36.5818C36.0814 163.81 35.7793 163.81 35.4916 157.327C35.3178 153.411 35.2222 148.214 35.2222 142.696V21.1098C35.2222 16.0204 35.3057 11.1277 35.4574 7.33296C35.7485 5.90501e-06 36.08 0 36.5818 0H200.273C200.775 0 201.106 0.00130163 201.397 7.33296C201.549 11.1243 201.632 16.0169 201.632 21.1098V142.696C201.632 148.215 201.537 153.411 201.363 157.327C201.075 163.81 200.773 163.81 200.273 163.81ZM36.8403 162.925H200.014C200.377 161.539 200.747 153.752 200.747 142.696V21.1098C200.747 16.0284 200.663 11.148 200.512 7.36837C200.328 2.72297 200.113 1.30912 200.01 0.88455H36.8451C36.7421 1.30913 36.5268 2.72276 36.3423 7.36817C36.1911 11.1517 36.1078 16.0318 36.1078 21.1098V142.696C36.1078 153.752 36.4779 161.538 36.8403 162.925Z" fill="#E4E4E4"/>
<path d="M200.273 0.4422H36.5818C36.3388 0.442668 36.1059 0.539268 35.9341 0.710854C35.7622 0.88244 35.6655 1.11504 35.665 1.35771V6.74462C35.6642 6.9689 35.748 7.18524 35.8998 7.35054C35.9849 7.44761 36.0897 7.52543 36.2073 7.57882C36.3249 7.63221 36.4526 7.65993 36.5818 7.66013H200.273C200.402 7.65993 200.53 7.63221 200.647 7.57882C200.765 7.52543 200.87 7.44761 200.955 7.35054C201.107 7.18521 201.19 6.96887 201.19 6.74462V1.35771C201.189 1.11506 201.092 0.882484 200.921 0.710895C200.749 0.539305 200.516 0.442686 200.273 0.4422Z" fill="#CACACA"/>
<path d="M40.9877 5.08834C41.7067 5.08834 42.2895 4.50626 42.2895 3.78822C42.2895 3.07018 41.7067 2.4881 40.9877 2.4881C40.2688 2.4881 39.686 3.07018 39.686 3.78822C39.686 4.50626 40.2688 5.08834 40.9877 5.08834Z" fill="white"/>
<path d="M45.9287 5.08834C46.6476 5.08834 47.2304 4.50626 47.2304 3.78822C47.2304 3.07018 46.6476 2.4881 45.9287 2.4881C45.2098 2.4881 44.627 3.07018 44.627 3.78822C44.627 4.50626 45.2098 5.08834 45.9287 5.08834Z" fill="white"/>
<path d="M50.8699 5.08834C51.5889 5.08834 52.1717 4.50626 52.1717 3.78822C52.1717 3.07018 51.5889 2.4881 50.8699 2.4881C50.151 2.4881 49.5682 3.07018 49.5682 3.78822C49.5682 4.50626 50.151 5.08834 50.8699 5.08834Z" fill="white"/>
<path d="M195.433 2.05212H189.742C189.631 2.05212 189.524 2.09639 189.445 2.17518C189.366 2.25398 189.322 2.36085 189.322 2.47228C189.322 2.58372 189.366 2.69059 189.445 2.76938C189.524 2.84818 189.631 2.89245 189.742 2.89245H195.433C195.544 2.89245 195.651 2.84818 195.73 2.76938C195.809 2.69059 195.853 2.58372 195.853 2.47228C195.853 2.36085 195.809 2.25398 195.73 2.17518C195.651 2.09639 195.544 2.05212 195.433 2.05212Z" fill="white"/>
<path d="M195.433 3.63104H189.742C189.631 3.63104 189.524 3.67531 189.445 3.7541C189.366 3.8329 189.322 3.93977 189.322 4.0512C189.322 4.16264 189.366 4.26951 189.445 4.3483C189.524 4.4271 189.631 4.47136 189.742 4.47136H195.433C195.544 4.47136 195.651 4.4271 195.73 4.3483C195.809 4.26951 195.853 4.16264 195.853 4.0512C195.853 3.93977 195.809 3.8329 195.73 3.7541C195.651 3.67531 195.544 3.63104 195.433 3.63104Z" fill="white"/>
<path d="M195.433 5.20996H189.742C189.631 5.20996 189.524 5.25423 189.445 5.33303C189.366 5.41182 189.322 5.51869 189.322 5.63012C189.322 5.74155 189.366 5.84843 189.445 5.92722C189.524 6.00602 189.631 6.05029 189.742 6.05029H195.433C195.544 6.05029 195.651 6.00602 195.73 5.92722C195.809 5.84843 195.853 5.74155 195.853 5.63012C195.853 5.51869 195.809 5.41182 195.73 5.33303C195.651 5.25423 195.544 5.20996 195.433 5.20996Z" fill="white"/>
<path d="M89.4908 27.4299H70.334C69.3737 27.431 68.453 27.8126 67.774 28.4908C67.0949 29.169 66.7129 30.0886 66.7118 31.0477V47.6197C66.7129 48.5789 67.0949 49.4984 67.774 50.1766C68.453 50.8548 69.3737 51.2364 70.334 51.2376H89.4908C90.4512 51.2364 91.3718 50.8548 92.0509 50.1766C92.7299 49.4984 93.1119 48.5789 93.113 47.6197V31.0477C93.1119 30.0886 92.7299 29.169 92.0509 28.4908C91.3718 27.8126 90.4512 27.431 89.4908 27.4299Z" fill="#C190FF"/>
<path d="M168.504 33.8384H101.735C101.299 33.8384 100.88 34.0115 100.572 34.3197C100.263 34.6278 100.09 35.0457 100.09 35.4815C100.09 35.9173 100.263 36.3352 100.572 36.6433C100.88 36.9514 101.299 37.1245 101.735 37.1245H168.504C168.941 37.1245 169.359 36.9514 169.668 36.6433C169.976 36.3352 170.15 35.9173 170.15 35.4815C170.15 35.0457 169.976 34.6278 169.668 34.3197C169.359 34.0115 168.941 33.8384 168.504 33.8384Z" fill="#E4E4E4"/>
<path d="M127.096 41.5385H101.735C101.299 41.5385 100.88 41.7116 100.572 42.0197C100.263 42.3278 100.09 42.7457 100.09 43.1815C100.09 43.6173 100.263 44.0352 100.572 44.3433C100.88 44.6514 101.299 44.8246 101.735 44.8246H127.096C127.532 44.8246 127.95 44.6514 128.259 44.3433C128.567 44.0352 128.741 43.6173 128.741 43.1815C128.741 42.7457 128.567 42.3278 128.259 42.0197C127.95 41.7116 127.532 41.5385 127.096 41.5385Z" fill="#E4E4E4"/>
<path d="M89.4908 71.6574H70.334C69.3737 71.6586 68.453 72.0401 67.774 72.7184C67.0949 73.3966 66.7129 74.3161 66.7118 75.2752V91.8473C66.7129 92.8064 67.0949 93.7259 67.774 94.4041C68.453 95.0824 69.3737 95.4639 70.334 95.4651H89.4908C90.4512 95.4639 91.3718 95.0824 92.0509 94.4041C92.7299 93.7259 93.1119 92.8064 93.113 91.8473V75.2752C93.1119 74.3161 92.7299 73.3966 92.0509 72.7184C91.3718 72.0401 90.4512 71.6586 89.4908 71.6574Z" fill="#C190FF"/>
<path d="M168.504 78.066H101.735C101.299 78.066 100.88 78.2391 100.572 78.5472C100.263 78.8554 100.09 79.2733 100.09 79.709C100.09 80.1448 100.263 80.5627 100.572 80.8708C100.88 81.179 101.299 81.3521 101.735 81.3521H168.504C168.941 81.3521 169.359 81.179 169.668 80.8708C169.976 80.5627 170.15 80.1448 170.15 79.709C170.15 79.2733 169.976 78.8554 169.668 78.5472C169.359 78.2391 168.941 78.066 168.504 78.066Z" fill="#E4E4E4"/>
<path d="M127.096 85.7659H101.735C101.299 85.7659 100.88 85.939 100.572 86.2472C100.263 86.5553 100.09 86.9732 100.09 87.409C100.09 87.8447 100.263 88.2627 100.572 88.5708C100.88 88.8789 101.299 89.052 101.735 89.052H127.096C127.532 89.052 127.95 88.8789 128.259 88.5708C128.567 88.2627 128.741 87.8447 128.741 87.409C128.741 86.9732 128.567 86.5553 128.259 86.2472C127.95 85.939 127.532 85.7659 127.096 85.7659Z" fill="#E4E4E4"/>
<path d="M89.4908 115.885H70.334C69.3737 115.886 68.453 116.268 67.774 116.946C67.0949 117.624 66.7129 118.544 66.7118 119.503V136.075C66.7129 137.034 67.0949 137.953 67.774 138.632C68.453 139.31 69.3737 139.691 70.334 139.693H89.4908C90.4512 139.691 91.3718 139.31 92.0509 138.632C92.7299 137.953 93.1119 137.034 93.113 136.075V119.503C93.1119 118.544 92.7299 117.624 92.0509 116.946C91.3718 116.268 90.4512 115.886 89.4908 115.885Z" fill="#C190FF"/>
<path d="M168.504 122.293H101.735C101.299 122.293 100.88 122.467 100.572 122.775C100.263 123.083 100.09 123.501 100.09 123.936C100.09 124.372 100.263 124.79 100.572 125.098C100.88 125.406 101.299 125.58 101.735 125.58H168.504C168.941 125.58 169.359 125.406 169.668 125.098C169.976 124.79 170.15 124.372 170.15 123.936C170.15 123.501 169.976 123.083 169.668 122.775C169.359 122.467 168.941 122.293 168.504 122.293Z" fill="#E4E4E4"/>
<path d="M127.096 129.993H101.735C101.299 129.993 100.88 130.167 100.572 130.475C100.263 130.783 100.09 131.201 100.09 131.636C100.09 132.072 100.263 132.49 100.572 132.798C100.88 133.106 101.299 133.28 101.735 133.28H127.096C127.532 133.28 127.95 133.106 128.259 132.798C128.567 132.49 128.741 132.072 128.741 131.636C128.741 131.201 128.567 130.783 128.259 130.475C127.95 130.167 127.532 129.993 127.096 129.993Z" fill="#E4E4E4"/>
<path d="M229.501 192.558H119.835C119.33 192.558 118.918 184.796 118.918 175.254V73.4719C118.918 63.9303 119.33 56.1686 119.835 56.1686H229.501C230.006 56.1686 230.418 63.9303 230.418 73.4719V175.254C230.418 184.796 230.006 192.558 229.501 192.558Z" fill="white"/>
<path d="M229.501 193H119.835C119.371 193 119.036 193 118.745 187.508C118.571 184.228 118.475 179.877 118.475 175.254V73.4719C118.475 68.8498 118.571 64.4981 118.745 61.2188C119.036 55.7263 119.371 55.7263 119.835 55.7263H229.501C229.965 55.7263 230.3 55.7263 230.591 61.2188C230.765 64.4981 230.861 68.8498 230.861 73.4719V175.254C230.861 179.877 230.765 184.228 230.591 187.508C230.3 193 229.965 193 229.501 193ZM120.08 192.115H229.256C229.574 190.97 229.975 184.865 229.975 175.254V73.4719C229.975 63.8615 229.574 57.7567 229.256 56.6108H120.08C119.762 57.7567 119.361 63.8615 119.361 73.4719V175.254C119.361 184.865 119.762 190.97 120.08 192.115Z" fill="#E4E4E4"/>
<path d="M229.501 63.3867H119.835C119.592 63.3864 119.359 63.2899 119.187 63.1182C119.015 62.9465 118.918 62.7137 118.918 62.4709V57.0843C118.918 56.8415 119.015 56.6088 119.187 56.4371C119.359 56.2654 119.592 56.1688 119.835 56.1686H229.501C229.744 56.1688 229.977 56.2654 230.149 56.4371C230.321 56.6088 230.417 56.8415 230.418 57.0843V62.4709C230.417 62.7137 230.321 62.9465 230.149 63.1182C229.977 63.2899 229.744 63.3864 229.501 63.3867Z" fill="#CACACA"/>
<path d="M124.239 60.815C124.958 60.815 125.541 60.2329 125.541 59.5149C125.541 58.7969 124.958 58.2148 124.239 58.2148C123.52 58.2148 122.938 58.7969 122.938 59.5149C122.938 60.2329 123.52 60.815 124.239 60.815Z" fill="white"/>
<path d="M129.18 60.815C129.899 60.815 130.482 60.2329 130.482 59.5149C130.482 58.7969 129.899 58.2148 129.18 58.2148C128.461 58.2148 127.879 58.7969 127.879 59.5149C127.879 60.2329 128.461 60.815 129.18 60.815Z" fill="white"/>
<path d="M134.122 60.815C134.84 60.815 135.423 60.2329 135.423 59.5149C135.423 58.7969 134.84 58.2148 134.122 58.2148C133.403 58.2148 132.82 58.7969 132.82 59.5149C132.82 60.2329 133.403 60.815 134.122 60.815Z" fill="white"/>
<path d="M224.66 58.6201H218.97C218.858 58.6201 218.751 58.5757 218.672 58.4968C218.593 58.4178 218.549 58.3108 218.549 58.1991C218.549 58.0875 218.593 57.9804 218.672 57.9015C218.751 57.8225 218.858 57.7782 218.97 57.7782H224.66C224.771 57.7786 224.878 57.8231 224.957 57.902C225.036 57.9809 225.08 58.0877 225.08 58.1991C225.08 58.3105 225.036 58.4174 224.957 58.4963C224.878 58.5752 224.771 58.6197 224.66 58.6201Z" fill="white"/>
<path d="M224.66 60.1986H218.97C218.858 60.1986 218.751 60.1542 218.672 60.0753C218.593 59.9963 218.549 59.8893 218.549 59.7776C218.549 59.666 218.593 59.5589 218.672 59.48C218.751 59.401 218.858 59.3567 218.97 59.3567H224.66C224.772 59.3567 224.879 59.401 224.958 59.48C225.037 59.5589 225.081 59.666 225.081 59.7776C225.081 59.8893 225.037 59.9963 224.958 60.0753C224.879 60.1542 224.772 60.1986 224.66 60.1986Z" fill="white"/>
<path d="M224.66 61.7771H218.97C218.858 61.7771 218.751 61.7328 218.672 61.6538C218.593 61.5749 218.549 61.4678 218.549 61.3562C218.549 61.2445 218.593 61.1375 218.672 61.0585C218.751 60.9796 218.858 60.9352 218.97 60.9352H224.66C224.771 60.9356 224.878 60.9801 224.957 61.059C225.036 61.1379 225.08 61.2448 225.08 61.3562C225.08 61.4676 225.036 61.5744 224.957 61.6533C224.878 61.7322 224.771 61.7768 224.66 61.7771Z" fill="white"/>
<path d="M153.534 96.8214H139.544C138.842 96.8206 138.17 96.5419 137.674 96.0465C137.178 95.5512 136.899 94.8795 136.898 94.179V82.0769C136.899 81.3763 137.178 80.7047 137.674 80.2093C138.17 79.714 138.842 79.4353 139.544 79.4345H153.534C154.236 79.4353 154.908 79.714 155.404 80.2093C155.9 80.7047 156.179 81.3763 156.18 82.0769V94.179C156.179 94.8795 155.9 95.5512 155.404 96.0465C154.908 96.5419 154.236 96.8206 153.534 96.8214Z" fill="#C190FF"/>
<path d="M211.237 86.516H162.477C162.158 86.516 161.853 86.3896 161.627 86.1646C161.402 85.9397 161.276 85.6345 161.276 85.3164C161.276 84.9982 161.402 84.693 161.627 84.4681C161.853 84.2431 162.158 84.1167 162.477 84.1167H211.237C211.555 84.1167 211.861 84.2431 212.086 84.4681C212.311 84.693 212.438 84.9982 212.438 85.3164C212.438 85.6345 212.311 85.9397 212.086 86.1646C211.861 86.3896 211.555 86.516 211.237 86.516Z" fill="#E4E4E4"/>
<path d="M180.997 92.1391H162.477C162.158 92.1391 161.853 92.0127 161.627 91.7877C161.402 91.5628 161.276 91.2576 161.276 90.9395C161.276 90.6213 161.402 90.3162 161.627 90.0912C161.853 89.8662 162.158 89.7398 162.477 89.7398H180.997C181.154 89.7395 181.311 89.7703 181.457 89.8305C181.603 89.8906 181.736 89.9789 181.847 90.0904C181.959 90.2018 182.048 90.3341 182.108 90.4798C182.169 90.6255 182.2 90.7817 182.2 90.9395C182.2 91.0972 182.169 91.2534 182.108 91.3991C182.048 91.5448 181.959 91.6771 181.847 91.7886C181.736 91.9 181.603 91.9883 181.457 92.0485C181.311 92.1086 181.154 92.1394 180.997 92.1391Z" fill="#E4E4E4"/>
<path d="M153.534 132.646H139.544C138.842 132.645 138.17 132.366 137.674 131.871C137.178 131.375 136.899 130.704 136.898 130.003V117.901C136.899 117.201 137.178 116.529 137.674 116.034C138.17 115.538 138.842 115.26 139.544 115.259H153.534C154.236 115.26 154.908 115.538 155.404 116.034C155.9 116.529 156.179 117.201 156.18 117.901V130.003C156.179 130.704 155.9 131.375 155.404 131.871C154.908 132.366 154.236 132.645 153.534 132.646Z" fill="#C190FF"/>
<path d="M211.237 122.34H162.477C162.158 122.34 161.853 122.214 161.627 121.989C161.402 121.764 161.276 121.459 161.276 121.141C161.276 120.823 161.402 120.517 161.627 120.292C161.853 120.067 162.158 119.941 162.477 119.941H211.237C211.555 119.941 211.861 120.067 212.086 120.292C212.311 120.517 212.438 120.823 212.438 121.141C212.438 121.459 212.311 121.764 212.086 121.989C211.861 122.214 211.555 122.34 211.237 122.34Z" fill="#E4E4E4"/>
<path d="M180.997 127.963H162.477C162.158 127.963 161.853 127.837 161.627 127.612C161.402 127.387 161.276 127.082 161.276 126.764C161.276 126.446 161.402 126.14 161.627 125.915C161.853 125.69 162.158 125.564 162.477 125.564H180.997C181.154 125.564 181.311 125.595 181.457 125.655C181.603 125.715 181.736 125.803 181.847 125.915C181.959 126.026 182.048 126.158 182.108 126.304C182.169 126.45 182.2 126.606 182.2 126.764C182.2 126.921 182.169 127.078 182.108 127.223C182.048 127.369 181.959 127.501 181.847 127.613C181.736 127.724 181.603 127.813 181.457 127.873C181.311 127.933 181.154 127.964 180.997 127.963Z" fill="#E4E4E4"/>
<path d="M153.534 168.47H139.544C138.842 168.469 138.17 168.191 137.674 167.695C137.178 167.2 136.899 166.528 136.898 165.828V153.725C136.899 153.025 137.178 152.353 137.674 151.858C138.17 151.363 138.842 151.084 139.544 151.083H153.534C154.236 151.084 154.908 151.363 155.404 151.858C155.9 152.353 156.179 153.025 156.18 153.725V165.828C156.179 166.528 155.9 167.2 155.404 167.695C154.908 168.191 154.236 168.469 153.534 168.47Z" fill="#C190FF"/>
<path d="M211.237 158.165H162.477C162.158 158.165 161.853 158.038 161.627 157.813C161.402 157.588 161.276 157.283 161.276 156.965C161.276 156.647 161.402 156.342 161.627 156.117C161.853 155.892 162.158 155.765 162.477 155.765H211.237C211.555 155.765 211.861 155.892 212.086 156.117C212.311 156.342 212.438 156.647 212.438 156.965C212.438 157.283 212.311 157.588 212.086 157.813C211.861 158.038 211.555 158.165 211.237 158.165Z" fill="#E4E4E4"/>
<path d="M180.997 163.788H162.477C162.158 163.788 161.853 163.661 161.627 163.436C161.402 163.211 161.276 162.906 161.276 162.588C161.276 162.27 161.402 161.965 161.627 161.74C161.853 161.515 162.158 161.388 162.477 161.388H180.997C181.154 161.388 181.311 161.419 181.457 161.479C181.603 161.539 181.736 161.628 181.847 161.739C181.959 161.85 182.048 161.983 182.108 162.128C182.169 162.274 182.2 162.43 182.2 162.588C182.2 162.746 182.169 162.902 182.108 163.048C182.048 163.193 181.959 163.326 181.847 163.437C181.736 163.549 181.603 163.637 181.457 163.697C181.311 163.757 181.154 163.788 180.997 163.788Z" fill="#E4E4E4"/>
</g>
<defs>
<clipPath id="clip0_265_497">
<rect width="324" height="193" fill="white"/>
</clipPath>
</defs>
</svg>
