<svg width="232" height="185" viewBox="0 0 232 185" fill="none" xmlns="http://www.w3.org/2000/svg">
<g clip-path="url(#clip0_265_233)">
<path d="M116.244 157.412C100.525 157.412 85.2921 151.982 73.1409 142.047C60.9897 132.113 52.6722 118.289 49.6055 102.93C46.5389 87.5716 48.9128 71.6288 56.3229 57.8183C63.733 44.0079 75.7207 33.1842 90.2434 27.1916C104.766 21.199 120.925 20.4081 135.968 24.9539C151.01 29.4996 164.005 39.1007 172.738 52.1211C181.472 65.1415 185.403 80.7758 183.862 96.3599C182.321 111.944 175.404 126.514 164.289 137.587C157.994 143.892 150.507 148.89 142.26 152.293C134.013 155.696 125.171 157.436 116.244 157.412ZM116.244 22.5595C79.0678 22.5595 48.8222 52.69 48.8222 89.7254C48.8222 126.761 79.0678 156.891 116.244 156.891C153.421 156.891 183.667 126.761 183.667 89.7254C183.667 52.69 153.421 22.5595 116.244 22.5595Z" fill="#C190FF"/>
<path d="M141.473 167.562V99.3721H90.527V167.562H141.473Z" fill="#2F2E41"/>
<path d="M150.225 97.2899H81.7748V124.358H150.225V97.2899Z" fill="#3F3D56"/>
<path d="M150.225 127.481H81.7748V154.549H150.225V127.481Z" fill="#3F3D56"/>
<path d="M150.225 157.672H81.7748V184.74H150.225V157.672Z" fill="#3F3D56"/>
<path d="M150.225 108.767H81.7748V112.931H150.225V108.767Z" fill="#C190FF"/>
<path d="M150.225 138.958H81.7748V143.122H150.225V138.958Z" fill="#C190FF"/>
<path d="M150.225 169.149H81.7748V173.313H150.225V169.149Z" fill="#C190FF"/>
<path d="M136.901 102.756C137.767 102.756 138.468 102.056 138.468 101.194C138.468 100.331 137.767 99.6323 136.901 99.6323C136.035 99.6323 135.333 100.331 135.333 101.194C135.333 102.056 136.035 102.756 136.901 102.756Z" fill="#C190FF"/>
<path d="M142.387 102.756C143.253 102.756 143.955 102.056 143.955 101.194C143.955 100.331 143.253 99.6323 142.387 99.6323C141.522 99.6323 140.82 100.331 140.82 101.194C140.82 102.056 141.522 102.756 142.387 102.756Z" fill="#C190FF"/>
<path d="M147.874 102.756C148.74 102.756 149.441 102.056 149.441 101.194C149.441 100.331 148.74 99.6323 147.874 99.6323C147.008 99.6323 146.306 100.331 146.306 101.194C146.306 102.056 147.008 102.756 147.874 102.756Z" fill="#C190FF"/>
<path d="M136.901 132.426C137.767 132.426 138.468 131.727 138.468 130.864C138.468 130.002 137.767 129.303 136.901 129.303C136.035 129.303 135.333 130.002 135.333 130.864C135.333 131.727 136.035 132.426 136.901 132.426Z" fill="#C190FF"/>
<path d="M142.387 132.426C143.253 132.426 143.955 131.727 143.955 130.864C143.955 130.002 143.253 129.303 142.387 129.303C141.522 129.303 140.82 130.002 140.82 130.864C140.82 131.727 141.522 132.426 142.387 132.426Z" fill="#C190FF"/>
<path d="M147.874 132.426C148.74 132.426 149.441 131.727 149.441 130.864C149.441 130.002 148.74 129.303 147.874 129.303C147.008 129.303 146.306 130.002 146.306 130.864C146.306 131.727 147.008 132.426 147.874 132.426Z" fill="#C190FF"/>
<path d="M136.901 162.097C137.767 162.097 138.468 161.397 138.468 160.535C138.468 159.673 137.767 158.973 136.901 158.973C136.035 158.973 135.333 159.673 135.333 160.535C135.333 161.397 136.035 162.097 136.901 162.097Z" fill="#C190FF"/>
<path d="M142.387 162.097C143.253 162.097 143.955 161.397 143.955 160.535C143.955 159.673 143.253 158.973 142.387 158.973C141.522 158.973 140.82 159.673 140.82 160.535C140.82 161.397 141.522 162.097 142.387 162.097Z" fill="#C190FF"/>
<path d="M147.874 162.097C148.74 162.097 149.441 161.397 149.441 160.535C149.441 159.673 148.74 158.973 147.874 158.973C147.008 158.973 146.306 159.673 146.306 160.535C146.306 161.397 147.008 162.097 147.874 162.097Z" fill="#C190FF"/>
<path d="M232 184.479H0V185H232V184.479Z" fill="#3F3D56"/>
<path d="M63.1935 70.5493V118.957C63.1933 119.97 62.7894 120.941 62.0706 121.657C61.3517 122.373 60.3768 122.775 59.3602 122.776H40.4767C39.4598 122.776 38.4846 122.374 37.7654 121.657C37.0463 120.941 36.6421 119.97 36.6418 118.957V70.5493C36.6421 69.5363 37.0463 68.565 37.7654 67.8488C38.4846 67.1327 39.4598 66.7305 40.4767 66.7306H42.7674C42.6549 67.0061 42.6121 67.305 42.6427 67.6009C42.6733 67.8968 42.7765 68.1807 42.943 68.4276C43.1096 68.6745 43.3344 68.8769 43.5979 69.0169C43.8613 69.1569 44.1553 69.2304 44.4539 69.2308H55.22C55.5186 69.2304 55.8126 69.1569 56.076 69.0169C56.3394 68.8769 56.5643 68.6745 56.7309 68.4276C56.8974 68.1807 57.0005 67.8968 57.0311 67.6009C57.0618 67.305 57.019 67.0061 56.9065 66.7306H59.3602C60.3768 66.7308 61.3517 67.1332 62.0706 67.8493C62.7894 68.5654 63.1933 69.5366 63.1935 70.5493Z" fill="#E6E6E6"/>
<path d="M61.9357 75.9747H37.8996V109.289H61.9357V75.9747Z" fill="white"/>
<path d="M54.3176 98.8827H44.7242V99.4288H54.3176V98.8827Z" fill="#E6E6E6"/>
<path d="M59.5587 100.888H44.7145V101.434H59.5587V100.888Z" fill="#C190FF"/>
<path d="M56.3637 102.777H44.7145V103.323H56.3637V102.777Z" fill="#E6E6E6"/>
<path d="M51.567 104.666H44.7145V105.212H51.567V104.666Z" fill="#E6E6E6"/>
<path d="M54.9932 106.555H44.7145V107.102H54.9932V106.555Z" fill="#E6E6E6"/>
<path d="M41.4699 98.7257H40.3735V99.8179H41.4699V98.7257Z" fill="#E6E6E6"/>
<path d="M41.4699 100.615H40.3735V101.707H41.4699V100.615Z" fill="#C190FF"/>
<path d="M41.4699 102.504H40.3735V103.596H41.4699V102.504Z" fill="#E6E6E6"/>
<path d="M41.4699 104.393H40.3735V105.485H41.4699V104.393Z" fill="#E6E6E6"/>
<path d="M41.4699 106.282H40.3735V107.375H41.4699V106.282Z" fill="#E6E6E6"/>
<path d="M54.7991 80.139H45.1331V89.7683H54.7991V80.139Z" fill="#E6E6E6"/>
<path d="M148.134 0.0362549H83.8937V41.0219H148.134V0.0362549Z" fill="#E6E6E6"/>
<path d="M141.998 11.5026H88.7365V31.5523H141.998V11.5026Z" fill="white"/>
<path d="M111.223 14.9763H98.4405V15.704H111.223V14.9763Z" fill="#E6E6E6"/>
<path d="M118.207 17.6481H98.4276V18.3757H118.207V17.6481Z" fill="#C190FF"/>
<path d="M113.949 20.1653H98.4276V20.8929H113.949V20.1653Z" fill="#E6E6E6"/>
<path d="M107.558 22.6825H98.4276V23.4102H107.558V22.6825Z" fill="#E6E6E6"/>
<path d="M112.123 25.1997H98.4276V25.9274H112.123V25.1997Z" fill="#E6E6E6"/>
<path d="M94.1044 14.767H92.6436V16.2223H94.1044V14.767Z" fill="#E6E6E6"/>
<path d="M94.1044 17.2842H92.6436V18.7395H94.1044V17.2842Z" fill="#C190FF"/>
<path d="M94.1044 19.8014H92.6436V21.2567H94.1044V19.8014Z" fill="#E6E6E6"/>
<path d="M94.1044 22.3186H92.6436V23.7739H94.1044V22.3186Z" fill="#E6E6E6"/>
<path d="M94.1044 24.8358H92.6436V26.2911H94.1044V24.8358Z" fill="#E6E6E6"/>
<path d="M139.384 14.0148H126.305V27.0434H139.384V14.0148Z" fill="#E6E6E6"/>
<path d="M148.106 0H83.8663V2.71877H148.106V0Z" fill="#C190FF"/>
<path d="M85.8944 1.93573C86.197 1.93573 86.4422 1.69139 86.4422 1.38998C86.4422 1.08858 86.197 0.844238 85.8944 0.844238C85.5919 0.844238 85.3466 1.08858 85.3466 1.38998C85.3466 1.69139 85.5919 1.93573 85.8944 1.93573Z" fill="white"/>
<path d="M87.8144 1.93573C88.117 1.93573 88.3622 1.69139 88.3622 1.38998C88.3622 1.08858 88.117 0.844238 87.8144 0.844238C87.5118 0.844238 87.2666 1.08858 87.2666 1.38998C87.2666 1.69139 87.5118 1.93573 87.8144 1.93573Z" fill="white"/>
<path d="M89.7344 1.93573C90.0369 1.93573 90.2822 1.69139 90.2822 1.38998C90.2822 1.08858 90.0369 0.844238 89.7344 0.844238C89.4318 0.844238 89.1866 1.08858 89.1866 1.38998C89.1866 1.69139 89.4318 1.93573 89.7344 1.93573Z" fill="white"/>
<path d="M191.151 76.7288H175.476V84.7971H191.151V76.7288Z" fill="#E6E6E6"/>
<path d="M191.151 105.619H175.476V113.687H191.151V105.619Z" fill="#E6E6E6"/>
<path d="M183.313 108.221C190.528 108.221 196.376 102.395 196.376 95.2078C196.376 88.0207 190.528 82.1945 183.313 82.1945C176.099 82.1945 170.25 88.0207 170.25 95.2078C170.25 102.395 176.099 108.221 183.313 108.221Z" fill="#E6E6E6"/>
<path d="M183.313 105.358C188.941 105.358 193.503 100.814 193.503 95.2078C193.503 89.6019 188.941 85.0574 183.313 85.0574C177.686 85.0574 173.124 89.6019 173.124 95.2078C173.124 100.814 177.686 105.358 183.313 105.358Z" fill="white"/>
<path d="M187.879 92.4266H179.977V92.8765H187.879V92.4266Z" fill="#E2E2E2"/>
<path d="M192.196 94.0784H179.969V94.5282H192.196V94.0784Z" fill="#C190FF"/>
<path d="M189.565 95.6345H179.969V96.0844H189.565V95.6345Z" fill="#E2E2E2"/>
<path d="M185.613 97.1907H179.969V97.6405H185.613V97.1907Z" fill="#E2E2E2"/>
<path d="M188.436 98.7468H179.969V99.1967H188.436V98.7468Z" fill="#E2E2E2"/>
<path d="M177.296 92.2974H176.393V93.1971H177.296V92.2974Z" fill="#E2E2E2"/>
<path d="M177.296 93.8534H176.393V94.7531H177.296V93.8534Z" fill="#C190FF"/>
<path d="M177.296 95.4097H176.393V96.3093H177.296V95.4097Z" fill="#E2E2E2"/>
<path d="M177.296 96.9658H176.393V97.8655H177.296V96.9658Z" fill="#E2E2E2"/>
<path d="M177.296 98.522H176.393V99.4217H177.296V98.522Z" fill="#E2E2E2"/>
</g>
<defs>
<clipPath id="clip0_265_233">
<rect width="232" height="185" fill="white"/>
</clipPath>
</defs>
</svg>
