<svg width="287" height="143" viewBox="0 0 287 143" fill="none" xmlns="http://www.w3.org/2000/svg">
<g clip-path="url(#clip0_265_660)">
<path d="M60.639 -3.32376e-05C52.8416 -0.0133982 45.1156 1.48143 37.8885 4.40171C37.5975 4.52068 37.3054 4.64022 37.0134 4.76247C26.0301 9.38597 16.6591 17.1405 10.0748 27.0542C3.49052 36.9678 -0.0141689 48.5997 -1.83532e-05 60.4918V126.499C0.000769174 127.197 0.278712 127.865 0.772834 128.358C1.26696 128.851 1.9369 129.128 2.6357 129.129L2.68803 129.133C53.489 138.336 102.876 143 149.518 143C150.218 143 150.916 142.999 151.614 142.997C197.462 142.858 242.105 138.194 284.303 129.135L284.364 129.129C285.063 129.128 285.733 128.851 286.227 128.358C286.721 127.865 286.999 127.197 287 126.499V2.6293C286.999 1.93221 286.721 1.26388 286.227 0.770957C285.733 0.278034 285.063 0.000769438 284.364 -1.54064e-05L60.639 -3.32376e-05Z" fill="#C190FF"/>
<path d="M218.413 52.6427C217.956 52.6502 217.52 52.8365 217.2 53.1615C216.879 53.4864 216.7 53.924 216.7 54.3798C216.7 54.8356 216.879 55.2732 217.2 55.5981C217.52 55.9231 217.956 56.1094 218.413 56.1169H262.073C262.302 56.1209 262.53 56.0799 262.743 55.9962C262.956 55.9124 263.15 55.7877 263.314 55.629C263.479 55.4703 263.611 55.2808 263.702 55.0714C263.793 54.8619 263.842 54.6366 263.845 54.4084C263.849 54.1801 263.808 53.9533 263.724 53.741C263.639 53.5287 263.514 53.335 263.355 53.171C263.196 53.007 263.006 52.8759 262.795 52.7853C262.585 52.6946 262.36 52.6462 262.131 52.6427C262.112 52.6424 262.093 52.6424 262.073 52.6427H218.413Z" fill="#3F3D56"/>
<path d="M271.975 52.159C271.943 52.1907 271.918 52.2284 271.901 52.2699C271.883 52.3113 271.874 52.3558 271.874 52.4007C271.874 52.4456 271.883 52.49 271.901 52.5315C271.918 52.573 271.943 52.6106 271.975 52.6424L273.446 54.1098H269.818C269.728 54.1098 269.64 54.1458 269.576 54.2099C269.512 54.274 269.476 54.361 269.476 54.4516C269.476 54.5423 269.512 54.6292 269.576 54.6933C269.64 54.7574 269.728 54.7935 269.818 54.7935H273.446L271.975 56.2609C271.943 56.2926 271.918 56.3303 271.901 56.3718C271.883 56.4132 271.874 56.4577 271.874 56.5026C271.874 56.5475 271.883 56.5919 271.901 56.6334C271.918 56.6749 271.943 56.7125 271.975 56.7443C272.007 56.776 272.044 56.8012 272.086 56.8184C272.128 56.8356 272.172 56.8444 272.217 56.8444C272.262 56.8444 272.307 56.8356 272.348 56.8184C272.39 56.8012 272.428 56.776 272.459 56.7443L274.515 54.6933C274.58 54.6292 274.616 54.5423 274.616 54.4516C274.616 54.361 274.58 54.274 274.515 54.2099L272.459 52.159C272.428 52.1272 272.39 52.102 272.348 52.0849C272.307 52.0677 272.262 52.0588 272.217 52.0588C272.172 52.0588 272.128 52.0677 272.086 52.0849C272.044 52.102 272.007 52.1272 271.975 52.159Z" fill="white"/>
<path d="M208.493 52.159C208.525 52.1907 208.55 52.2284 208.567 52.2699C208.585 52.3113 208.593 52.3558 208.593 52.4007C208.593 52.4456 208.585 52.49 208.567 52.5315C208.55 52.573 208.525 52.6106 208.493 52.6424L207.022 54.1098H210.649C210.694 54.1097 210.739 54.1184 210.781 54.1355C210.822 54.1527 210.86 54.1778 210.892 54.2096C210.924 54.2413 210.95 54.279 210.967 54.3206C210.984 54.3621 210.993 54.4067 210.993 54.4516C210.993 54.4966 210.984 54.5411 210.967 54.5827C210.95 54.6242 210.924 54.6619 210.892 54.6937C210.86 54.7254 210.822 54.7506 210.781 54.7677C210.739 54.7848 210.694 54.7936 210.649 54.7935H207.022L208.493 56.2609C208.557 56.325 208.593 56.4119 208.593 56.5026C208.593 56.5932 208.557 56.6802 208.493 56.7443C208.429 56.8084 208.342 56.8444 208.251 56.8444C208.16 56.8444 208.073 56.8084 208.008 56.7443L205.953 54.6933C205.888 54.6292 205.852 54.5423 205.852 54.4516C205.852 54.361 205.888 54.274 205.953 54.2099L208.008 52.159C208.04 52.1272 208.078 52.102 208.12 52.0849C208.161 52.0677 208.206 52.0588 208.251 52.0588C208.296 52.0588 208.34 52.0677 208.382 52.0849C208.423 52.102 208.461 52.1272 208.493 52.159Z" fill="white"/>
<g opacity="0.4">
<path d="M220.176 16.5881C221.209 16.5881 222.047 15.7523 222.047 14.7213C222.047 13.6903 221.209 12.8545 220.176 12.8545C219.142 12.8545 218.305 13.6903 218.305 14.7213C218.305 15.7523 219.142 16.5881 220.176 16.5881Z" fill="white"/>
<path d="M227.973 16.5881C229.007 16.5881 229.844 15.7523 229.844 14.7213C229.844 13.6903 229.007 12.8545 227.973 12.8545C226.94 12.8545 226.102 13.6903 226.102 14.7213C226.102 15.7523 226.94 16.5881 227.973 16.5881Z" fill="white"/>
<path d="M235.77 16.5881C236.804 16.5881 237.642 15.7523 237.642 14.7213C237.642 13.6903 236.804 12.8545 235.77 12.8545C234.737 12.8545 233.899 13.6903 233.899 14.7213C233.899 15.7523 234.737 16.5881 235.77 16.5881Z" fill="white"/>
<path d="M243.567 16.5881C244.601 16.5881 245.439 15.7523 245.439 14.7213C245.439 13.6903 244.601 12.8545 243.567 12.8545C242.534 12.8545 241.696 13.6903 241.696 14.7213C241.696 15.7523 242.534 16.5881 243.567 16.5881Z" fill="white"/>
<path d="M251.365 16.5881C252.398 16.5881 253.236 15.7523 253.236 14.7213C253.236 13.6903 252.398 12.8545 251.365 12.8545C250.331 12.8545 249.493 13.6903 249.493 14.7213C249.493 15.7523 250.331 16.5881 251.365 16.5881Z" fill="white"/>
<path d="M259.162 16.5881C260.195 16.5881 261.033 15.7523 261.033 14.7213C261.033 13.6903 260.195 12.8545 259.162 12.8545C258.128 12.8545 257.291 13.6903 257.291 14.7213C257.291 15.7523 258.128 16.5881 259.162 16.5881Z" fill="white"/>
<path d="M266.959 16.5881C267.993 16.5881 268.83 15.7523 268.83 14.7213C268.83 13.6903 267.993 12.8545 266.959 12.8545C265.926 12.8545 265.088 13.6903 265.088 14.7213C265.088 15.7523 265.926 16.5881 266.959 16.5881Z" fill="white"/>
<path d="M220.176 22.4996C221.209 22.4996 222.047 21.6638 222.047 20.6328C222.047 19.6018 221.209 18.766 220.176 18.766C219.142 18.766 218.305 19.6018 218.305 20.6328C218.305 21.6638 219.142 22.4996 220.176 22.4996Z" fill="white"/>
<path d="M227.973 22.4996C229.007 22.4996 229.844 21.6638 229.844 20.6328C229.844 19.6018 229.007 18.766 227.973 18.766C226.94 18.766 226.102 19.6018 226.102 20.6328C226.102 21.6638 226.94 22.4996 227.973 22.4996Z" fill="white"/>
<path d="M235.77 22.4996C236.804 22.4996 237.642 21.6638 237.642 20.6328C237.642 19.6018 236.804 18.766 235.77 18.766C234.737 18.766 233.899 19.6018 233.899 20.6328C233.899 21.6638 234.737 22.4996 235.77 22.4996Z" fill="white"/>
<path d="M243.567 22.4996C244.601 22.4996 245.439 21.6638 245.439 20.6328C245.439 19.6018 244.601 18.766 243.567 18.766C242.534 18.766 241.696 19.6018 241.696 20.6328C241.696 21.6638 242.534 22.4996 243.567 22.4996Z" fill="white"/>
<path d="M251.365 22.4996C252.398 22.4996 253.236 21.6638 253.236 20.6328C253.236 19.6018 252.398 18.766 251.365 18.766C250.331 18.766 249.493 19.6018 249.493 20.6328C249.493 21.6638 250.331 22.4996 251.365 22.4996Z" fill="white"/>
<path d="M259.162 22.4996C260.195 22.4996 261.033 21.6638 261.033 20.6328C261.033 19.6018 260.195 18.766 259.162 18.766C258.128 18.766 257.291 19.6018 257.291 20.6328C257.291 21.6638 258.128 22.4996 259.162 22.4996Z" fill="white"/>
<path d="M266.959 22.4996C267.993 22.4996 268.83 21.6638 268.83 20.6328C268.83 19.6018 267.993 18.766 266.959 18.766C265.926 18.766 265.088 19.6018 265.088 20.6328C265.088 21.6638 265.926 22.4996 266.959 22.4996Z" fill="white"/>
<path d="M220.176 28.4111C221.209 28.4111 222.047 27.5753 222.047 26.5443C222.047 25.5133 221.209 24.6775 220.176 24.6775C219.142 24.6775 218.305 25.5133 218.305 26.5443C218.305 27.5753 219.142 28.4111 220.176 28.4111Z" fill="white"/>
<path d="M227.973 28.4111C229.007 28.4111 229.844 27.5753 229.844 26.5443C229.844 25.5133 229.007 24.6775 227.973 24.6775C226.94 24.6775 226.102 25.5133 226.102 26.5443C226.102 27.5753 226.94 28.4111 227.973 28.4111Z" fill="white"/>
<path d="M235.77 28.4111C236.804 28.4111 237.642 27.5753 237.642 26.5443C237.642 25.5133 236.804 24.6775 235.77 24.6775C234.737 24.6775 233.899 25.5133 233.899 26.5443C233.899 27.5753 234.737 28.4111 235.77 28.4111Z" fill="white"/>
<path d="M243.567 28.4111C244.601 28.4111 245.439 27.5753 245.439 26.5443C245.439 25.5133 244.601 24.6775 243.567 24.6775C242.534 24.6775 241.696 25.5133 241.696 26.5443C241.696 27.5753 242.534 28.4111 243.567 28.4111Z" fill="white"/>
<path d="M251.365 28.4111C252.398 28.4111 253.236 27.5753 253.236 26.5443C253.236 25.5133 252.398 24.6775 251.365 24.6775C250.331 24.6775 249.493 25.5133 249.493 26.5443C249.493 27.5753 250.331 28.4111 251.365 28.4111Z" fill="white"/>
<path d="M259.162 28.4111C260.195 28.4111 261.033 27.5753 261.033 26.5443C261.033 25.5133 260.195 24.6775 259.162 24.6775C258.128 24.6775 257.291 25.5133 257.291 26.5443C257.291 27.5753 258.128 28.4111 259.162 28.4111Z" fill="white"/>
<path d="M266.959 28.4111C267.993 28.4111 268.83 27.5753 268.83 26.5443C268.83 25.5133 267.993 24.6775 266.959 24.6775C265.926 24.6775 265.088 25.5133 265.088 26.5443C265.088 27.5753 265.926 28.4111 266.959 28.4111Z" fill="white"/>
<path d="M220.176 34.3226C221.209 34.3226 222.047 33.4868 222.047 32.4558C222.047 31.4248 221.209 30.589 220.176 30.589C219.142 30.589 218.305 31.4248 218.305 32.4558C218.305 33.4868 219.142 34.3226 220.176 34.3226Z" fill="white"/>
<path d="M227.973 34.3226C229.007 34.3226 229.844 33.4868 229.844 32.4558C229.844 31.4248 229.007 30.589 227.973 30.589C226.94 30.589 226.102 31.4248 226.102 32.4558C226.102 33.4868 226.94 34.3226 227.973 34.3226Z" fill="white"/>
<path d="M220.176 40.2341C221.209 40.2341 222.047 39.3983 222.047 38.3673C222.047 37.3363 221.209 36.5005 220.176 36.5005C219.142 36.5005 218.305 37.3363 218.305 38.3673C218.305 39.3983 219.142 40.2341 220.176 40.2341Z" fill="white"/>
<path d="M227.973 40.2341C229.007 40.2341 229.844 39.3983 229.844 38.3673C229.844 37.3363 229.007 36.5005 227.973 36.5005C226.94 36.5005 226.102 37.3363 226.102 38.3673C226.102 39.3983 226.94 40.2341 227.973 40.2341Z" fill="white"/>
<path d="M235.77 40.2341C236.804 40.2341 237.642 39.3983 237.642 38.3673C237.642 37.3363 236.804 36.5005 235.77 36.5005C234.737 36.5005 233.899 37.3363 233.899 38.3673C233.899 39.3983 234.737 40.2341 235.77 40.2341Z" fill="white"/>
<path d="M235.77 34.3226C236.804 34.3226 237.642 33.4868 237.642 32.4558C237.642 31.4248 236.804 30.589 235.77 30.589C234.737 30.589 233.899 31.4248 233.899 32.4558C233.899 33.4868 234.737 34.3226 235.77 34.3226Z" fill="white"/>
<path d="M243.567 34.3226C244.601 34.3226 245.439 33.4868 245.439 32.4558C245.439 31.4248 244.601 30.589 243.567 30.589C242.534 30.589 241.696 31.4248 241.696 32.4558C241.696 33.4868 242.534 34.3226 243.567 34.3226Z" fill="white"/>
<path d="M251.365 34.3226C252.398 34.3226 253.236 33.4868 253.236 32.4558C253.236 31.4248 252.398 30.589 251.365 30.589C250.331 30.589 249.493 31.4248 249.493 32.4558C249.493 33.4868 250.331 34.3226 251.365 34.3226Z" fill="white"/>
<path d="M259.162 34.3226C260.195 34.3226 261.033 33.4868 261.033 32.4558C261.033 31.4248 260.195 30.589 259.162 30.589C258.128 30.589 257.291 31.4248 257.291 32.4558C257.291 33.4868 258.128 34.3226 259.162 34.3226Z" fill="white"/>
<path d="M266.959 34.3226C267.993 34.3226 268.83 33.4868 268.83 32.4558C268.83 31.4248 267.993 30.589 266.959 30.589C265.926 30.589 265.088 31.4248 265.088 32.4558C265.088 33.4868 265.926 34.3226 266.959 34.3226Z" fill="white"/>
</g>
<path d="M193.332 109.689C191.289 109.689 189.292 109.085 187.593 107.952C185.894 106.82 184.57 105.211 183.788 103.328C183.006 101.445 182.802 99.3729 183.2 97.374C183.599 95.3751 184.583 93.5389 186.027 92.0978C187.472 90.6566 189.313 89.6752 191.317 89.2776C193.32 88.88 195.397 89.084 197.285 89.864C199.172 90.6439 200.786 91.9647 201.921 93.6593C203.056 95.3539 203.662 97.3462 203.662 99.3843C203.658 102.116 202.569 104.736 200.633 106.667C198.696 108.599 196.07 109.686 193.332 109.689ZM193.332 89.6639C191.405 89.6639 189.521 90.234 187.918 91.3021C186.316 92.3702 185.067 93.8883 184.329 95.6645C183.592 97.4407 183.399 99.3951 183.775 101.281C184.151 103.166 185.079 104.898 186.442 106.258C187.804 107.617 189.541 108.543 191.431 108.918C193.321 109.293 195.28 109.101 197.061 108.365C198.841 107.629 200.363 106.383 201.434 104.785C202.504 103.186 203.076 101.307 203.076 99.3843C203.073 96.8072 202.045 94.3364 200.219 92.5141C198.392 90.6918 195.915 89.6668 193.332 89.6639Z" fill="#3F3D56"/>
<path d="M197.292 98.3967H194.322V95.4336C194.322 95.1717 194.218 94.9204 194.032 94.7352C193.846 94.55 193.594 94.4459 193.332 94.4459C193.069 94.4459 192.817 94.55 192.632 94.7352C192.446 94.9204 192.342 95.1717 192.342 95.4336V98.3967H189.371C189.109 98.3967 188.857 98.5007 188.671 98.6859C188.486 98.8712 188.381 99.1224 188.381 99.3843C188.381 99.6463 188.486 99.8975 188.671 100.083C188.857 100.268 189.109 100.372 189.371 100.372H192.342V103.335C192.342 103.597 192.446 103.848 192.632 104.033C192.817 104.219 193.069 104.323 193.332 104.323C193.594 104.323 193.846 104.219 194.032 104.033C194.218 103.848 194.322 103.597 194.322 103.335V100.372H197.292C197.555 100.372 197.807 100.268 197.992 100.083C198.178 99.8975 198.282 99.6463 198.282 99.3843C198.282 99.1224 198.178 98.8712 197.992 98.6859C197.807 98.5007 197.555 98.3967 197.292 98.3967Z" fill="white"/>
<g opacity="0.4">
<path d="M15.8213 110.954C16.6338 110.954 17.2926 110.297 17.2926 109.487C17.2926 108.676 16.6338 108.019 15.8213 108.019C15.0087 108.019 14.35 108.676 14.35 109.487C14.35 110.297 15.0087 110.954 15.8213 110.954Z" fill="white"/>
<path d="M15.8213 104.839C16.6338 104.839 17.2926 104.182 17.2926 103.371C17.2926 102.56 16.6338 101.903 15.8213 101.903C15.0087 101.903 14.35 102.56 14.35 103.371C14.35 104.182 15.0087 104.839 15.8213 104.839Z" fill="white"/>
<path d="M15.8213 98.7232C16.6338 98.7232 17.2926 98.066 17.2926 97.2554C17.2926 96.4448 16.6338 95.7877 15.8213 95.7877C15.0087 95.7877 14.35 96.4448 14.35 97.2554C14.35 98.066 15.0087 98.7232 15.8213 98.7232Z" fill="white"/>
<path d="M15.8213 92.6077C16.6338 92.6077 17.2926 91.9506 17.2926 91.14C17.2926 90.3294 16.6338 89.6722 15.8213 89.6722C15.0087 89.6722 14.35 90.3294 14.35 91.14C14.35 91.9506 15.0087 92.6077 15.8213 92.6077Z" fill="white"/>
<path d="M15.8213 86.4922C16.6338 86.4922 17.2926 85.8351 17.2926 85.0245C17.2926 84.2139 16.6338 83.5568 15.8213 83.5568C15.0087 83.5568 14.35 84.2139 14.35 85.0245C14.35 85.8351 15.0087 86.4922 15.8213 86.4922Z" fill="white"/>
<path d="M15.8213 80.3767C16.6338 80.3767 17.2926 79.7196 17.2926 78.909C17.2926 78.0984 16.6338 77.4413 15.8213 77.4413C15.0087 77.4413 14.35 78.0984 14.35 78.909C14.35 79.7196 15.0087 80.3767 15.8213 80.3767Z" fill="white"/>
<path d="M15.8213 74.2612C16.6338 74.2612 17.2926 73.6041 17.2926 72.7935C17.2926 71.9829 16.6338 71.3258 15.8213 71.3258C15.0087 71.3258 14.35 71.9829 14.35 72.7935C14.35 73.6041 15.0087 74.2612 15.8213 74.2612Z" fill="white"/>
<path d="M20.4803 110.954C21.2929 110.954 21.9516 110.297 21.9516 109.487C21.9516 108.676 21.2929 108.019 20.4803 108.019C19.6678 108.019 19.009 108.676 19.009 109.487C19.009 110.297 19.6678 110.954 20.4803 110.954Z" fill="white"/>
<path d="M20.4803 104.839C21.2929 104.839 21.9516 104.182 21.9516 103.371C21.9516 102.56 21.2929 101.903 20.4803 101.903C19.6678 101.903 19.009 102.56 19.009 103.371C19.009 104.182 19.6678 104.839 20.4803 104.839Z" fill="white"/>
<path d="M20.4803 98.7232C21.2929 98.7232 21.9516 98.066 21.9516 97.2554C21.9516 96.4448 21.2929 95.7877 20.4803 95.7877C19.6678 95.7877 19.009 96.4448 19.009 97.2554C19.009 98.066 19.6678 98.7232 20.4803 98.7232Z" fill="white"/>
<path d="M20.4803 92.6077C21.2929 92.6077 21.9516 91.9506 21.9516 91.14C21.9516 90.3294 21.2929 89.6722 20.4803 89.6722C19.6678 89.6722 19.009 90.3294 19.009 91.14C19.009 91.9506 19.6678 92.6077 20.4803 92.6077Z" fill="white"/>
<path d="M20.4803 86.4922C21.2929 86.4922 21.9516 85.8351 21.9516 85.0245C21.9516 84.2139 21.2929 83.5568 20.4803 83.5568C19.6678 83.5568 19.009 84.2139 19.009 85.0245C19.009 85.8351 19.6678 86.4922 20.4803 86.4922Z" fill="white"/>
<path d="M20.4803 80.3767C21.2929 80.3767 21.9516 79.7196 21.9516 78.909C21.9516 78.0984 21.2929 77.4413 20.4803 77.4413C19.6678 77.4413 19.009 78.0984 19.009 78.909C19.009 79.7196 19.6678 80.3767 20.4803 80.3767Z" fill="white"/>
<path d="M20.4803 74.2612C21.2929 74.2612 21.9516 73.6041 21.9516 72.7935C21.9516 71.9829 21.2929 71.3258 20.4803 71.3258C19.6678 71.3258 19.009 71.9829 19.009 72.7935C19.009 73.6041 19.6678 74.2612 20.4803 74.2612Z" fill="white"/>
<path d="M25.1394 110.954C25.952 110.954 26.6107 110.297 26.6107 109.487C26.6107 108.676 25.952 108.019 25.1394 108.019C24.3269 108.019 23.6682 108.676 23.6682 109.487C23.6682 110.297 24.3269 110.954 25.1394 110.954Z" fill="white"/>
<path d="M25.1394 104.839C25.952 104.839 26.6107 104.182 26.6107 103.371C26.6107 102.56 25.952 101.903 25.1394 101.903C24.3269 101.903 23.6682 102.56 23.6682 103.371C23.6682 104.182 24.3269 104.839 25.1394 104.839Z" fill="white"/>
<path d="M25.1394 98.7232C25.952 98.7232 26.6107 98.066 26.6107 97.2554C26.6107 96.4448 25.952 95.7877 25.1394 95.7877C24.3269 95.7877 23.6682 96.4448 23.6682 97.2554C23.6682 98.066 24.3269 98.7232 25.1394 98.7232Z" fill="white"/>
<path d="M25.1394 92.6077C25.952 92.6077 26.6107 91.9506 26.6107 91.14C26.6107 90.3294 25.952 89.6722 25.1394 89.6722C24.3269 89.6722 23.6682 90.3294 23.6682 91.14C23.6682 91.9506 24.3269 92.6077 25.1394 92.6077Z" fill="white"/>
<path d="M25.1394 86.4922C25.952 86.4922 26.6107 85.8351 26.6107 85.0245C26.6107 84.2139 25.952 83.5568 25.1394 83.5568C24.3269 83.5568 23.6682 84.2139 23.6682 85.0245C23.6682 85.8351 24.3269 86.4922 25.1394 86.4922Z" fill="white"/>
<path d="M25.1394 80.3767C25.952 80.3767 26.6107 79.7196 26.6107 78.909C26.6107 78.0984 25.952 77.4413 25.1394 77.4413C24.3269 77.4413 23.6682 78.0984 23.6682 78.909C23.6682 79.7196 24.3269 80.3767 25.1394 80.3767Z" fill="white"/>
<path d="M25.1394 74.2612C25.952 74.2612 26.6107 73.6041 26.6107 72.7935C26.6107 71.9829 25.952 71.3258 25.1394 71.3258C24.3269 71.3258 23.6682 71.9829 23.6682 72.7935C23.6682 73.6041 24.3269 74.2612 25.1394 74.2612Z" fill="white"/>
<path d="M29.7985 110.954C30.6111 110.954 31.2698 110.297 31.2698 109.487C31.2698 108.676 30.6111 108.019 29.7985 108.019C28.9859 108.019 28.3272 108.676 28.3272 109.487C28.3272 110.297 28.9859 110.954 29.7985 110.954Z" fill="white"/>
<path d="M29.7985 104.839C30.6111 104.839 31.2698 104.182 31.2698 103.371C31.2698 102.56 30.6111 101.903 29.7985 101.903C28.9859 101.903 28.3272 102.56 28.3272 103.371C28.3272 104.182 28.9859 104.839 29.7985 104.839Z" fill="white"/>
<path d="M34.4576 110.954C35.2701 110.954 35.9288 110.297 35.9288 109.487C35.9288 108.676 35.2701 108.019 34.4576 108.019C33.645 108.019 32.9863 108.676 32.9863 109.487C32.9863 110.297 33.645 110.954 34.4576 110.954Z" fill="white"/>
<path d="M34.4576 104.839C35.2701 104.839 35.9288 104.182 35.9288 103.371C35.9288 102.56 35.2701 101.903 34.4576 101.903C33.645 101.903 32.9863 102.56 32.9863 103.371C32.9863 104.182 33.645 104.839 34.4576 104.839Z" fill="white"/>
<path d="M34.4576 98.7232C35.2701 98.7232 35.9288 98.066 35.9288 97.2554C35.9288 96.4448 35.2701 95.7877 34.4576 95.7877C33.645 95.7877 32.9863 96.4448 32.9863 97.2554C32.9863 98.066 33.645 98.7232 34.4576 98.7232Z" fill="white"/>
<path d="M29.7985 98.7232C30.6111 98.7232 31.2698 98.066 31.2698 97.2554C31.2698 96.4448 30.6111 95.7877 29.7985 95.7877C28.9859 95.7877 28.3272 96.4448 28.3272 97.2554C28.3272 98.066 28.9859 98.7232 29.7985 98.7232Z" fill="white"/>
<path d="M29.7985 92.6077C30.6111 92.6077 31.2698 91.9506 31.2698 91.14C31.2698 90.3294 30.6111 89.6722 29.7985 89.6722C28.9859 89.6722 28.3272 90.3294 28.3272 91.14C28.3272 91.9506 28.9859 92.6077 29.7985 92.6077Z" fill="white"/>
<path d="M29.7985 86.4922C30.6111 86.4922 31.2698 85.8351 31.2698 85.0245C31.2698 84.2139 30.6111 83.5568 29.7985 83.5568C28.9859 83.5568 28.3272 84.2139 28.3272 85.0245C28.3272 85.8351 28.9859 86.4922 29.7985 86.4922Z" fill="white"/>
<path d="M29.7985 80.3767C30.6111 80.3767 31.2698 79.7196 31.2698 78.909C31.2698 78.0984 30.6111 77.4413 29.7985 77.4413C28.9859 77.4413 28.3272 78.0984 28.3272 78.909C28.3272 79.7196 28.9859 80.3767 29.7985 80.3767Z" fill="white"/>
<path d="M29.7985 74.2612C30.6111 74.2612 31.2698 73.6041 31.2698 72.7935C31.2698 71.9829 30.6111 71.3258 29.7985 71.3258C28.9859 71.3258 28.3272 71.9829 28.3272 72.7935C28.3272 73.6041 28.9859 74.2612 29.7985 74.2612Z" fill="white"/>
</g>
<path d="M145.67 9.64148H47.9308C47.4508 9.64196 46.9906 9.83241 46.6511 10.171C46.3117 10.5096 46.1208 10.9688 46.1203 11.4476V94.8213C46.1208 95.3002 46.3117 95.7593 46.6511 96.098C46.9906 96.4366 47.4508 96.627 47.9308 96.6275H145.67C146.15 96.627 146.61 96.4366 146.949 96.098C147.289 95.7593 147.48 95.3002 147.48 94.8213V11.4476C147.48 10.9688 147.289 10.5096 146.949 10.171C146.61 9.83241 146.15 9.64196 145.67 9.64148ZM146.755 94.8213C146.754 95.1087 146.64 95.3842 146.437 95.5877C146.233 95.7912 145.958 95.906 145.67 95.9071H47.9308C47.6426 95.9066 47.3664 95.792 47.163 95.5884C46.9595 95.3847 46.8454 95.1088 46.8459 94.8213V11.4476C46.8454 11.1601 46.9595 10.8842 47.163 10.6806C47.3664 10.477 47.6426 10.3624 47.9308 10.3619H145.67C145.958 10.3629 146.233 10.4778 146.437 10.6812C146.64 10.8847 146.754 11.1603 146.755 11.4476V94.8213Z" fill="#3F3D56"/>
<path d="M70.4914 81.8028C70.4914 81.9313 70.488 82.0599 70.4813 82.185C70.3827 84.0666 69.564 85.8387 68.1941 87.1357C66.8242 88.4328 65.0075 89.1559 63.1187 89.1559C61.23 89.1559 59.4133 88.4328 58.0434 87.1357C56.6734 85.8387 55.8547 84.0666 55.7562 82.185C55.7494 82.0599 55.746 81.9313 55.746 81.8028C55.7454 80.8366 55.9357 79.8797 56.3059 78.9868C56.6762 78.094 57.2191 77.2826 57.9038 76.5992C58.5885 75.9157 59.4014 75.3736 60.2962 75.0037C61.1911 74.6338 62.1501 74.4434 63.1187 74.4434C64.0873 74.4434 65.0464 74.6338 65.9412 75.0037C66.836 75.3736 67.649 75.9157 68.3337 76.5992C69.0183 77.2826 69.5613 78.094 69.9316 78.9868C70.3018 79.8797 70.492 80.8366 70.4914 81.8028Z" fill="white"/>
<path d="M138.075 76.8986H80.1443C79.8186 76.8991 79.5065 77.0285 79.2764 77.2583C79.0463 77.4882 78.9171 77.7998 78.9171 78.1246C78.9171 78.4495 79.0463 78.7611 79.2764 78.9909C79.5065 79.2208 79.8186 79.3502 80.1443 79.3507H138.075C138.4 79.3502 138.713 79.2208 138.943 78.9909C139.173 78.7611 139.302 78.4495 139.302 78.1246C139.302 77.7998 139.173 77.4882 138.943 77.2583C138.713 77.0285 138.4 76.8991 138.075 76.8986Z" fill="#3F3D56"/>
<path d="M105.071 84.255H80.1442C79.8187 84.255 79.5065 84.384 79.2764 84.6136C79.0462 84.8432 78.9169 85.1547 78.9169 85.4794C78.9169 85.8041 79.0462 86.1156 79.2764 86.3452C79.5065 86.5748 79.8187 86.7038 80.1442 86.7038H105.071C105.397 86.7038 105.709 86.5748 105.939 86.3452C106.169 86.1156 106.299 85.8041 106.299 85.4794C106.299 85.1547 106.169 84.8432 105.939 84.6136C105.709 84.384 105.397 84.255 105.071 84.255Z" fill="white"/>
<path d="M168.89 68.2398H71.152C70.4882 68.2391 69.8518 67.9756 69.3824 67.5074C68.9131 67.0391 68.6491 66.4042 68.6484 65.742V22.9537C68.6491 22.2915 68.9131 21.6567 69.3825 21.1885C69.8518 20.7202 70.4882 20.4568 71.152 20.4561H168.89C169.554 20.4568 170.19 20.7202 170.66 21.1885C171.129 21.6567 171.393 22.2915 171.394 22.9537V65.742C171.393 66.4042 171.129 67.0391 170.66 67.5074C170.19 67.9756 169.554 68.2391 168.89 68.2398ZM71.152 21.3325C70.7211 21.333 70.308 21.504 70.0034 21.8079C69.6988 22.1118 69.5274 22.5239 69.5269 22.9537V65.742C69.5274 66.1719 69.6987 66.584 70.0034 66.8879C70.308 67.1919 70.7211 67.3629 71.152 67.3634H168.89C169.321 67.3629 169.734 67.1919 170.039 66.8879C170.343 66.584 170.515 66.1719 170.515 65.742V22.9537C170.515 22.5239 170.343 22.1118 170.039 21.8079C169.734 21.504 169.321 21.333 168.89 21.3325H71.152Z" fill="white"/>
<path d="M91.0564 36.0624C90.7305 36.0624 90.4179 36.1915 90.1875 36.4214C89.957 36.6513 89.8276 36.9631 89.8276 37.2882C89.8276 37.6133 89.957 37.9251 90.1875 38.155C90.4179 38.3849 90.7305 38.514 91.0564 38.514H148.986C149.312 38.514 149.624 38.3849 149.855 38.155C150.085 37.9251 150.214 37.6133 150.214 37.2882C150.214 36.9631 150.085 36.6513 149.855 36.4214C149.624 36.1915 149.312 36.0624 148.986 36.0624H91.0564Z" fill="white"/>
<path d="M91.0564 43.1653C90.7305 43.1653 90.4179 43.2944 90.1875 43.5243C89.957 43.7542 89.8276 44.066 89.8276 44.3911C89.8276 44.7162 89.957 45.028 90.1875 45.2579C90.4179 45.4878 90.7305 45.6169 91.0564 45.6169H148.986C149.311 45.6164 149.623 45.4871 149.853 45.2572C150.083 45.0274 150.213 44.7159 150.213 44.3911C150.213 44.0663 150.083 43.7548 149.853 43.525C149.623 43.2952 149.311 43.1658 148.986 43.1653H91.0564Z" fill="white"/>
<path d="M91.0564 50.1819C90.7305 50.1819 90.4179 50.311 90.1875 50.5409C89.957 50.7708 89.8276 51.0826 89.8276 51.4077C89.8276 51.7328 89.957 52.0446 90.1875 52.2745C90.4179 52.5044 90.7305 52.6335 91.0564 52.6335H115.984C116.309 52.633 116.621 52.5037 116.851 52.2738C117.081 52.044 117.21 51.7325 117.21 51.4077C117.21 51.0829 117.081 50.7714 116.851 50.5416C116.621 50.3118 116.309 50.1824 115.984 50.1819H91.0564Z" fill="white"/>
<path d="M185.005 86.3681L175.188 72.5474L178.366 73.208C178.423 73.2197 178.481 73.2202 178.538 73.2095C178.594 73.1988 178.648 73.177 178.697 73.1454C178.745 73.1139 178.787 73.0731 178.819 73.0255C178.852 72.9779 178.874 72.9244 178.886 72.868C178.898 72.8117 178.898 72.7535 178.888 72.6969C178.877 72.6404 178.855 72.5864 178.823 72.5383C178.792 72.4901 178.751 72.4486 178.703 72.4162C178.655 72.3838 178.602 72.361 178.545 72.3493L173.81 71.3658L173.17 76.1484C173.163 76.2056 173.166 76.2638 173.181 76.3196C173.196 76.3754 173.221 76.4277 173.256 76.4736C173.292 76.5195 173.335 76.558 173.385 76.5869C173.435 76.6159 173.491 76.6347 173.548 76.6424C173.605 76.65 173.664 76.6462 173.72 76.6313C173.775 76.6165 173.828 76.5907 173.874 76.5556C173.92 76.5205 173.958 76.4766 173.987 76.4267C174.016 76.3767 174.035 76.3215 174.042 76.2643L174.471 73.0526L184.288 86.8748C184.321 86.9217 184.364 86.9616 184.413 86.9923C184.461 87.0229 184.516 87.0437 184.573 87.0533C184.629 87.063 184.688 87.0614 184.744 87.0486C184.8 87.0359 184.853 87.0122 184.9 86.9789C184.947 86.9456 184.987 86.9034 185.018 86.8547C185.049 86.806 185.07 86.7518 185.079 86.6951C185.089 86.6383 185.087 86.5803 185.075 86.5242C185.062 86.4681 185.038 86.415 185.005 86.3681Z" fill="white"/>
<path d="M131.688 126.593H61.9126C61.57 126.593 61.2416 126.457 60.9994 126.215C60.7571 125.973 60.6209 125.646 60.6205 125.304V108.038C60.6209 107.696 60.7571 107.368 60.9994 107.127C61.2416 106.885 61.57 106.749 61.9126 106.749H131.688C132.03 106.749 132.359 106.885 132.601 107.127C132.843 107.368 132.98 107.696 132.98 108.038V125.304C132.98 125.646 132.843 125.973 132.601 126.215C132.359 126.457 132.03 126.593 131.688 126.593ZM61.9126 107.264C61.7071 107.265 61.51 107.346 61.3647 107.491C61.2193 107.636 61.1376 107.833 61.1373 108.038V125.304C61.1376 125.509 61.2193 125.706 61.3647 125.851C61.51 125.996 61.7071 126.077 61.9126 126.077H131.688C131.893 126.077 132.091 125.996 132.236 125.851C132.381 125.706 132.463 125.509 132.463 125.304V108.038C132.463 107.833 132.381 107.636 132.236 107.491C132.091 107.346 131.893 107.265 131.688 107.264H61.9126Z" fill="#3F3D56"/>
<path d="M72.7542 121.259C75.6612 121.259 78.0177 118.908 78.0177 116.008C78.0177 113.109 75.6612 110.758 72.7542 110.758C69.8473 110.758 67.4908 113.109 67.4908 116.008C67.4908 118.908 69.8473 121.259 72.7542 121.259Z" fill="white"/>
<path d="M84.9103 112.508C84.795 112.508 84.6808 112.53 84.5741 112.574C84.4675 112.618 84.3706 112.682 84.289 112.764C84.2074 112.845 84.1426 112.942 84.0984 113.048C84.0542 113.154 84.0315 113.268 84.0315 113.383C84.0315 113.498 84.0542 113.612 84.0984 113.718C84.1426 113.825 84.2074 113.921 84.289 114.002C84.3706 114.084 84.4675 114.148 84.5741 114.192C84.6808 114.236 84.795 114.258 84.9103 114.258H126.266C126.499 114.258 126.722 114.166 126.886 114.002C127.051 113.838 127.143 113.615 127.143 113.383C127.143 113.151 127.051 112.928 126.886 112.764C126.722 112.6 126.499 112.508 126.266 112.508H84.9103Z" fill="white"/>
<path d="M84.9103 117.759C84.795 117.758 84.6808 117.781 84.5741 117.825C84.4675 117.869 84.3706 117.933 84.289 118.014C84.2074 118.096 84.1426 118.192 84.0984 118.299C84.0542 118.405 84.0315 118.519 84.0315 118.634C84.0315 118.749 84.0542 118.863 84.0984 118.969C84.1426 119.075 84.2074 119.172 84.289 119.253C84.3706 119.334 84.4675 119.399 84.5741 119.443C84.6808 119.487 84.795 119.509 84.9103 119.509H102.706C102.939 119.509 103.162 119.417 103.326 119.253C103.491 119.088 103.583 118.866 103.583 118.634C103.583 118.402 103.491 118.179 103.326 118.015C103.162 117.851 102.939 117.759 102.706 117.759H84.9103Z" fill="white"/>
<path d="M223.75 65.0774H254.761C255.104 65.0778 255.432 65.2137 255.675 65.4554C255.917 65.697 256.053 66.0247 256.053 66.3664V98.585C256.053 98.9268 255.917 99.2544 255.675 99.496C255.432 99.7377 255.104 99.8736 254.761 99.874H223.75C223.407 99.8736 223.079 99.7377 222.837 99.496C222.595 99.2544 222.458 98.9268 222.458 98.585V66.3664C222.458 66.0247 222.595 65.697 222.837 65.4554C223.079 65.2137 223.407 65.0778 223.75 65.0774ZM254.761 99.3584C254.967 99.3582 255.164 99.2766 255.309 99.1317C255.455 98.9867 255.536 98.7901 255.537 98.585V66.3664C255.536 66.1613 255.455 65.9648 255.309 65.8198C255.164 65.6748 254.967 65.5932 254.761 65.593H223.75C223.544 65.5932 223.347 65.6748 223.202 65.8198C223.057 65.9648 222.975 66.1613 222.975 66.3664V98.585C222.975 98.7901 223.057 98.9867 223.202 99.1317C223.347 99.2766 223.544 99.3582 223.75 99.3584H254.761Z" fill="#3F3D56"/>
<path d="M248.153 93.2298C248.386 93.2298 248.609 93.1376 248.774 92.9735C248.938 92.8094 249.031 92.5868 249.031 92.3547C249.031 92.1226 248.938 91.9 248.774 91.7359C248.609 91.5718 248.386 91.4796 248.153 91.4796H230.358C230.125 91.4796 229.902 91.5718 229.738 91.7359C229.573 91.9 229.481 92.1226 229.481 92.3547C229.481 92.5868 229.573 92.8094 229.738 92.9735C229.902 93.1376 230.125 93.2298 230.358 93.2298H248.153Z" fill="white"/>
<path d="M248.153 88.074C248.269 88.0742 248.383 88.0517 248.49 88.0078C248.596 87.9639 248.693 87.8995 248.775 87.8182C248.856 87.7369 248.921 87.6404 248.965 87.5341C249.01 87.4278 249.032 87.3139 249.032 87.1988C249.032 87.0838 249.01 86.9699 248.965 86.8636C248.921 86.7573 248.856 86.6608 248.775 86.5795C248.693 86.4982 248.596 86.4338 248.49 86.3899C248.383 86.346 248.269 86.3235 248.153 86.3237H230.358C230.243 86.3235 230.128 86.346 230.022 86.3899C229.915 86.4338 229.818 86.4982 229.737 86.5795C229.655 86.6608 229.59 86.7573 229.546 86.8636C229.502 86.9699 229.479 87.0838 229.479 87.1988C229.479 87.3139 229.502 87.4278 229.546 87.5341C229.59 87.6404 229.655 87.7369 229.737 87.8182C229.818 87.8995 229.915 87.9639 230.022 88.0078C230.128 88.0517 230.243 88.0742 230.358 88.074H248.153Z" fill="white"/>
<path d="M239.256 71.7214C240.348 71.7214 241.415 72.0445 242.323 72.6498C243.231 73.2551 243.939 74.1154 244.357 75.1219C244.775 76.1284 244.884 77.236 244.671 78.3045C244.458 79.3731 243.932 80.3546 243.16 81.1249C242.388 81.8953 241.404 82.4199 240.333 82.6325C239.262 82.845 238.151 82.736 237.142 82.319C236.133 81.9021 235.271 81.1961 234.664 80.2902C234.058 79.3844 233.734 78.3194 233.734 77.2299C233.735 75.7695 234.318 74.3693 235.353 73.3366C236.388 72.304 237.792 71.7231 239.256 71.7214Z" fill="white"/>
</g>
<defs>
<clipPath id="clip0_265_660">
<rect width="287" height="143" fill="white"/>
</clipPath>
</defs>
</svg>
