<svg width="264" height="197" viewBox="0 0 264 197" fill="none" xmlns="http://www.w3.org/2000/svg">
<g clip-path="url(#clip0_269_1063)">
<path d="M226.825 146.335V169.361H37.1746V27.6389H226.825V146.335Z" fill="white"/>
<path d="M37.1746 169.146V169.576H226.825V169.146H37.1746ZM37.1746 27.4243V27.8539H226.825V27.4243H37.1746Z" fill="#F2F2F2"/>
<path d="M202.262 153.909C202.316 153.892 202.364 153.87 202.419 153.853C202.636 153.776 202.865 153.707 203.101 153.647H203.107C203.106 153.625 203.108 153.604 203.113 153.583C202.829 153.69 202.545 153.802 202.262 153.909ZM199.516 155.868C199.528 155.855 199.534 155.842 199.546 155.829C199.607 155.748 199.679 155.662 199.751 155.58C200.326 154.945 201.032 154.439 201.821 154.098C201.878 154.069 201.936 154.043 201.996 154.021C202.067 153.987 202.14 153.957 202.214 153.931C202.232 153.922 202.244 153.918 202.262 153.909C200.494 154.584 198.708 155.241 196.897 155.868H199.516ZM0 27.2095L1.34601 49.4014L264 28.0686V27.2095H0ZM264 146.336V169.791H0V168.931L15.6514 146.056L117.762 168.931C138.916 168.981 159.986 166.288 180.435 160.92C180.846 160.817 181.25 160.705 181.654 160.593C183.428 160.112 185.172 159.614 186.916 159.09H186.934C190.314 158.089 193.635 157.015 196.897 155.868C198.689 155.245 200.462 154.599 202.214 153.931C202.229 153.922 202.245 153.914 202.262 153.909C202.545 153.802 202.829 153.69 203.113 153.583L204.181 153.17H204.199C208.013 151.675 211.718 150.086 215.35 148.406C215.616 148.286 215.875 148.166 216.135 148.041C218.241 147.057 220.315 146.042 222.356 144.995C224.915 143.689 227.419 142.338 229.869 140.94C234.89 138.079 239.679 135.035 244.237 131.807C248.929 128.499 253.434 124.937 257.73 121.137C259.468 119.599 261.156 118.031 262.793 116.433C263.197 116.038 263.602 115.642 264 115.243V146.336Z" fill="#F2F2F2"/>
<path d="M73.8441 144.888H37.1746V146.851H73.8441C74.1069 146.851 74.3588 146.748 74.5446 146.564C74.7303 146.38 74.8347 146.13 74.8347 145.87C74.8347 145.609 74.7303 145.36 74.5446 145.175C74.3588 144.991 74.1069 144.888 73.8441 144.888Z" fill="#F2F2F2"/>
<path d="M73.8441 138.015H37.1746V139.978H73.8441C74.1069 139.978 74.3588 139.874 74.5446 139.69C74.7303 139.506 74.8347 139.257 74.8347 138.996C74.8347 138.736 74.7303 138.486 74.5446 138.302C74.3588 138.118 74.1069 138.015 73.8441 138.015Z" fill="#F2F2F2"/>
<path d="M74.1389 131.184C74.092 131.171 74.0442 131.161 73.9959 131.154C73.9458 131.146 73.895 131.141 73.8442 131.141H37.1746V133.105H73.8442C74.0774 133.103 74.3028 133.021 74.4814 132.873C74.6168 132.759 74.7191 132.611 74.7774 132.445C74.8357 132.279 74.848 132.101 74.8131 131.928C74.7781 131.756 74.6971 131.596 74.5785 131.465C74.46 131.334 74.3081 131.237 74.1389 131.184Z" fill="#F2F2F2"/>
<path d="M87.2479 128.508L84.0183 114.306L82.9649 109.68C82.8775 109.298 82.6407 108.966 82.3066 108.758C81.9725 108.549 81.5684 108.481 81.1832 108.567L79.5923 108.924L66.8345 111.776C66.644 111.819 66.4639 111.898 66.3043 112.009C66.1448 112.121 66.0091 112.263 65.9048 112.426C65.8005 112.59 65.7298 112.772 65.6967 112.963C65.6635 113.153 65.6686 113.349 65.7117 113.537C65.0268 119.856 66.3793 125.686 69.3141 131.141C69.5308 131.549 69.7606 131.958 69.999 132.366C70.0621 132.648 70.2084 132.905 70.4195 133.105C70.5971 133.273 70.8139 133.395 71.0506 133.46C71.2873 133.525 71.5366 133.531 71.7763 133.478L73.4496 133.105L74.4813 132.873L86.1251 130.269C86.5096 130.183 86.8439 129.949 87.0545 129.619C87.265 129.289 87.3346 128.889 87.2479 128.508Z" fill="#E6E6E6"/>
<path d="M85.9127 127.718L82.8349 114.207L82.0979 110.964C82.0167 110.607 81.7958 110.297 81.4836 110.101C81.1715 109.905 80.7937 109.84 80.4333 109.92L79.4536 110.139L68.1003 112.678C67.74 112.759 67.4266 112.978 67.2291 113.287C67.0316 113.596 66.966 113.971 67.0469 114.328C67.1466 119.246 67.6668 123.71 69.8039 126.433C70.0472 127.493 70.5692 128.469 71.3169 129.264C72.0647 130.058 73.0114 130.642 74.0609 130.957C74.0869 130.965 74.1086 130.974 74.1346 130.982C74.1519 130.987 74.1736 130.995 74.1909 131C75.1787 131.275 76.2203 131.302 77.2211 131.077L84.8593 129.367C85.2197 129.287 85.533 129.068 85.7305 128.758C85.9281 128.449 85.9936 128.075 85.9127 127.718Z" fill="white"/>
<path d="M74.6017 117.183C74.8529 116.896 75.1912 116.697 75.5659 116.616C75.9407 116.535 76.3318 116.576 76.6809 116.734C77.0299 116.917 77.3093 117.208 77.4771 117.563C77.6449 117.918 77.6921 118.316 77.6115 118.7C77.4762 119.586 77.0091 120.393 76.9667 121.3C76.9285 121.698 76.9985 122.098 77.1694 122.46C77.3403 122.821 77.6058 123.131 77.9384 123.356C78.4476 123.663 78.9717 122.904 78.46 122.596C77.6181 122.089 77.901 120.975 78.1452 120.215C78.4502 119.267 78.768 118.299 78.3907 117.322C78.2237 116.912 77.9558 116.551 77.6115 116.271C77.2672 115.991 76.8576 115.801 76.4199 115.718C75.9823 115.635 75.5308 115.662 75.1065 115.797C74.6823 115.932 74.299 116.17 73.9917 116.49C73.5899 116.919 74.1949 117.618 74.6017 117.183Z" fill="#3947F2"/>
<path d="M78.6886 126.006C79.201 126.006 79.6164 125.595 79.6164 125.087C79.6164 124.579 79.201 124.167 78.6886 124.167C78.1761 124.167 77.7607 124.579 77.7607 125.087C77.7607 125.595 78.1761 126.006 78.6886 126.006Z" fill="#3947F2"/>
<path d="M189.324 90.1406C188.386 89.5349 187.315 89.1596 186.201 89.046C185.087 88.9323 183.962 89.0836 182.919 89.4872C181.876 89.8909 180.945 90.5352 180.203 91.3668C179.461 92.1984 178.931 93.1932 178.655 94.2688L165.733 127.634L143.521 115.138C143.424 113.702 142.87 112.333 141.938 111.228C141.007 110.123 139.747 109.338 138.338 108.987C136.929 108.636 135.445 108.736 134.097 109.272C132.749 109.809 131.607 110.755 130.835 111.974C130.063 113.194 129.7 114.624 129.8 116.06C129.899 117.497 130.454 118.865 131.387 119.969C132.319 121.073 133.58 121.856 134.99 122.206C136.399 122.555 137.884 122.454 139.231 121.916C143.908 126.863 164.187 147.146 172.583 139.221C179.639 132.559 189.823 106.742 192.274 97.8266C192.667 96.401 192.593 94.8886 192.063 93.5074C191.533 92.1261 190.574 90.9473 189.324 90.1406Z" fill="#A0616A"/>
<path d="M165.06 140.619L169.138 158.883L198.956 161.556L201.696 145.653L165.06 140.619Z" fill="#A0616A"/>
<path d="M206.804 169.147H164.473L166.671 162.604L167.39 152.896L167.802 152.905L200.358 153.442L200.948 153.45L201.949 161.784C203.858 164.037 205.488 166.509 206.804 169.147Z" fill="#2F2E41"/>
<path d="M183.671 81.2891L198.513 80.5315L205.406 91.3259C205.406 91.3259 212.058 92.6779 211.159 107.824C210.26 122.97 201.697 137.058 201.697 137.058L202.333 134.896L201.228 138.025L201.37 139.781L202.877 141.642L203.032 143.566L201.697 146.61L203.513 149.524L165.332 145.859L163.935 140.819L165.972 138.112L164.834 134.582L166.545 131.187L167.437 130.45C167.437 130.45 157.68 115.924 168.88 104.984L173.376 97.4106L178.406 91.3293L183.671 81.2891Z" fill="#3F3D56"/>
<path d="M134.966 102.521C130.951 101.1 125.751 101.654 122.934 105.119C120.41 108.223 120.107 113.164 123.318 115.934C127.227 119.305 132.641 118.065 136.91 116.163C140.815 114.422 145.114 111.616 145.054 106.853C145.045 105.629 144.741 104.425 144.169 103.34C143.596 102.256 142.771 101.322 141.762 100.616C140.738 99.9299 139.565 99.4923 138.339 99.3385C137.112 99.1846 135.866 99.3188 134.702 99.7303C133.671 100.104 134.116 101.75 135.159 101.373C135.998 101.057 136.898 100.93 137.794 101.001C138.689 101.073 139.557 101.342 140.334 101.788C141.111 102.234 141.778 102.846 142.287 103.58C142.795 104.314 143.132 105.151 143.273 106.03C143.876 109.984 140.466 112.545 137.298 114.105C133.822 115.817 129.398 117.454 125.677 115.488C122.494 113.806 121.912 109.969 123.677 107.023C125.865 103.37 130.79 102.847 134.509 104.164C135.553 104.533 136.002 102.888 134.966 102.521Z" fill="#3F3D56"/>
<path d="M58.1207 69.455C55.2371 68.4341 51.5025 68.8323 49.4786 71.3209C47.6659 73.55 47.4485 77.099 49.7549 79.0883C52.5626 81.5098 56.4511 80.619 59.5167 79.2528C62.3219 78.0027 65.4098 75.9871 65.3664 72.5665C65.3597 71.6873 65.1418 70.8224 64.7306 70.0433C64.3195 69.2642 63.7269 68.5934 63.002 68.0865C62.2663 67.5938 61.424 67.2794 60.5431 67.1689C59.6621 67.0584 58.7673 67.1548 57.931 67.4504C57.1906 67.7184 57.5104 68.9014 58.2592 68.6302C58.8622 68.403 59.5087 68.3118 60.1517 68.3634C60.7947 68.415 61.418 68.608 61.9762 68.9284C62.5345 69.2487 63.0136 69.6885 63.3787 70.2155C63.7438 70.7425 63.9858 71.3436 64.0869 71.9749C64.52 74.8149 62.0714 76.6543 59.7957 77.7749C57.2992 79.0043 54.1218 80.1805 51.4492 78.7681C49.163 77.56 48.7449 74.8044 50.0124 72.6883C51.5837 70.0647 55.1214 69.6892 57.7925 70.6348C58.5422 70.9002 58.8649 69.7184 58.1207 69.455Z" fill="#F2F2F2"/>
<path d="M93.1632 77.5583C97.3181 76.4384 100.065 73.2687 99.2996 70.4787C98.5338 67.6887 94.5448 66.3348 90.39 67.4547C86.2351 68.5746 83.4877 71.7442 84.2535 74.5342C85.0193 77.3242 89.0083 78.6782 93.1632 77.5583Z" fill="#F2F2F2"/>
<path d="M73.8449 67.8307L73.8602 77.4505C73.866 77.6175 73.9371 77.7758 74.0584 77.8919C74.1797 78.008 74.3418 78.0729 74.5104 78.0729C74.6791 78.0729 74.8411 78.008 74.9625 77.8919C75.0838 77.7758 75.1548 77.6175 75.1607 77.4505L75.1454 67.8307C75.1395 67.6636 75.0685 67.5054 74.9472 67.3893C74.8259 67.2732 74.6638 67.2083 74.4951 67.2083C74.3265 67.2083 74.1644 67.2732 74.0431 67.3893C73.9218 67.5054 73.8507 67.6636 73.8449 67.8307Z" fill="#F2F2F2"/>
<path d="M69.3095 73.0053L78.7713 73.0282C78.9399 73.0224 79.0996 72.952 79.2167 72.8318C79.3339 72.7116 79.3994 72.551 79.3994 72.3839C79.3994 72.2167 79.3339 72.0561 79.2167 71.9359C79.0996 71.8157 78.9399 71.7453 78.7713 71.7395L69.3095 71.7166C69.141 71.7223 68.9812 71.7928 68.8641 71.913C68.7469 72.0332 68.6814 72.1938 68.6814 72.3609C68.6814 72.5281 68.7469 72.6887 68.8641 72.8089C68.9812 72.9291 69.141 72.9995 69.3095 73.0053Z" fill="#F2F2F2"/>
<path d="M37.6818 77.6976C37.6936 77.8433 37.647 77.9877 37.5521 78.0995C37.4571 78.2113 37.3215 78.2814 37.1746 78.2947V77.0317C37.324 77.0671 37.4563 77.1529 37.5489 77.2744C37.6414 77.3959 37.6884 77.5455 37.6818 77.6976Z" fill="#F2F2F2"/>
<path d="M40.0072 78.5447C40.4861 78.5447 40.8742 78.1601 40.8742 77.6856C40.8742 77.2111 40.4861 76.8264 40.0072 76.8264C39.5284 76.8264 39.1402 77.2111 39.1402 77.6856C39.1402 78.1601 39.5284 78.5447 40.0072 78.5447Z" fill="#F2F2F2"/>
<path d="M68.9889 155.868C67.411 155.868 66.1235 156.929 66.1235 158.231C66.1235 159.532 67.411 160.593 68.9889 160.593H226.825V155.868H68.9889Z" fill="white"/>
<path d="M189.05 155.868V160.593H68.9889C67.411 160.593 66.1235 159.532 66.1235 158.231C66.1235 156.929 67.411 155.868 68.9889 155.868H189.05Z" fill="#3947F2"/>
<path d="M184.715 162.81C187.349 162.81 189.484 160.694 189.484 158.084C189.484 155.475 187.349 153.359 184.715 153.359C182.082 153.359 179.947 155.475 179.947 158.084C179.947 160.694 182.082 162.81 184.715 162.81Z" fill="#3947F2"/>
<path d="M63.5312 88.3599H37.1746V90.3273H63.5312C63.7945 90.3273 64.047 90.2237 64.2332 90.0392C64.4194 89.8547 64.5239 89.6045 64.5239 89.3436C64.5239 89.0827 64.4194 88.8325 64.2332 88.648C64.047 88.4635 63.7945 88.3599 63.5312 88.3599Z" fill="white"/>
<path d="M129.581 72.7147C130.441 70.5251 133.624 69.8038 135.385 71.3248C136.436 72.2326 137.22 73.4793 138.61 73.9248C140.109 74.4056 141.532 73.6118 142.814 72.9241C143.473 72.5224 144.201 72.2432 144.962 72.0999C145.651 72.0244 146.347 72.0835 147.013 72.2737C148.492 72.6595 149.851 73.3961 151.256 73.9756C152.768 74.6127 154.398 74.926 156.04 74.8948C157.993 74.8654 159.947 74.789 161.9 74.7346C164.087 74.6737 166.274 74.6127 168.461 74.5518C170.618 74.5403 172.769 74.3577 174.896 74.0056C175.717 73.8507 175.37 72.6083 174.551 72.7629C172.606 73.0827 170.639 73.248 168.668 73.2573C166.663 73.3142 164.658 73.3701 162.654 73.4249C160.614 73.4817 158.575 73.5428 156.536 73.5952C155.627 73.6525 154.716 73.6051 153.819 73.4539C153.058 73.284 152.316 73.0425 151.602 72.7328C150.151 72.1291 148.744 71.3632 147.205 70.9924C145.739 70.6204 144.186 70.787 142.834 71.4615C141.594 72.0612 140.068 73.3019 138.639 72.5461C137.397 71.8893 136.716 70.5165 135.488 69.8168C132.917 68.3522 129.384 69.6784 128.327 72.3721C128.023 73.1454 129.28 73.4805 129.581 72.7147Z" fill="#F2F2F2"/>
<path d="M132.915 83.0179C133.837 81.6643 134.876 80.1083 136.559 79.6479C136.924 79.5322 137.309 79.4973 137.688 79.5457C138.068 79.5941 138.432 79.7247 138.754 79.9281C139.351 80.326 139.807 80.9067 140.378 81.3399C141.583 82.2538 142.916 82.112 144.212 81.4798C145.307 80.9455 146.542 79.8903 147.841 80.3131C148.749 80.6084 149.456 81.3304 150.334 81.6984C150.741 81.8986 151.189 81.9999 151.642 81.9938C152.096 81.9878 152.541 81.8746 152.942 81.6637C153.085 81.5744 153.187 81.4337 153.227 81.2713C153.267 81.1088 153.242 80.9373 153.156 80.793C153.071 80.6486 152.933 80.5427 152.77 80.4975C152.608 80.4524 152.434 80.4715 152.286 80.5509C151.536 80.9855 150.66 80.4723 150.019 80.0609C149.352 79.5494 148.586 79.1791 147.768 78.9729C146.317 78.7298 145.084 79.5632 143.865 80.2083C143.331 80.5607 142.7 80.7417 142.058 80.7266C141.349 80.6321 140.834 80.0446 140.345 79.584C139.825 79.0379 139.178 78.625 138.461 78.3805C137.639 78.1627 136.77 78.1979 135.969 78.4814C134.06 79.1294 132.874 80.779 131.792 82.3675C131.322 83.0567 132.448 83.7023 132.915 83.0179Z" fill="#F2F2F2"/>
<path d="M116.75 68.6219C116.54 68.7314 116.302 68.7756 116.067 68.7488C115.831 68.722 115.609 68.6254 115.43 68.4715C115.251 68.3177 115.123 68.1139 115.062 67.8867C115.002 67.6596 115.012 67.4196 115.092 67.1983C115.47 66.2489 116.847 66.4685 117.368 67.1361C118.112 68.0888 117.768 69.4098 117.087 70.2857C116.243 71.3709 114.943 71.9872 113.735 72.5841C113.627 72.6499 113.541 72.7452 113.486 72.8585C113.432 72.9718 113.412 73.0984 113.428 73.2228C113.444 73.3473 113.497 73.4645 113.579 73.5601C113.661 73.6557 113.769 73.7258 113.891 73.7619L118.666 74.7891C119.482 74.9646 119.831 73.7225 119.012 73.5464L114.236 72.5192L114.392 73.6969C115.75 73.0259 117.133 72.3079 118.084 71.0987C118.537 70.5739 118.847 69.9433 118.985 69.2666C119.123 68.5899 119.084 67.8894 118.873 67.2315C118.666 66.6104 118.25 66.079 117.693 65.7274C117.137 65.3757 116.475 65.2253 115.82 65.3016C115.492 65.339 115.176 65.4438 114.892 65.6091C114.607 65.7744 114.361 65.9966 114.168 66.2617C113.975 66.5267 113.84 66.8287 113.771 67.1484C113.703 67.468 113.703 67.7983 113.77 68.1181C114.089 69.765 115.974 70.4449 117.406 69.7347C118.155 69.3634 117.497 68.2513 116.75 68.6219Z" fill="#F2F2F2"/>
<path d="M121.288 75.3228C121.767 75.3228 122.155 74.9381 122.155 74.4636C122.155 73.9891 121.767 73.6045 121.288 73.6045C120.809 73.6045 120.421 73.9891 120.421 74.4636C120.421 74.9381 120.809 75.3228 121.288 75.3228Z" fill="#F2F2F2"/>
<path d="M142.428 88.4329H113.752C113.489 88.4329 113.237 88.5363 113.052 88.7204C112.866 88.9044 112.761 89.1541 112.761 89.4144C112.761 89.6748 112.866 89.9244 113.052 90.1085C113.237 90.2926 113.489 90.396 113.752 90.396H142.428C142.69 90.396 142.942 90.2926 143.128 90.1085C143.314 89.9244 143.418 89.6748 143.418 89.4144C143.418 89.1541 143.314 88.9044 143.128 88.7204C142.942 88.5363 142.69 88.4329 142.428 88.4329Z" fill="#F2F2F2"/>
<path d="M121.534 108.728H86.2331C86.1181 108.728 86.0078 108.683 85.9266 108.602C85.8453 108.521 85.7996 108.412 85.7996 108.298C85.7996 108.184 85.8453 108.075 85.9266 107.994C86.0078 107.914 86.1181 107.869 86.2331 107.869H121.534C121.649 107.869 121.759 107.914 121.841 107.994C121.922 108.075 121.968 108.184 121.968 108.298C121.968 108.412 121.922 108.521 121.841 108.602C121.759 108.683 121.649 108.728 121.534 108.728Z" fill="#3F3D56"/>
<path d="M83.7832 114.312C86.1773 114.312 88.1181 112.389 88.1181 110.016C88.1181 107.644 86.1773 105.721 83.7832 105.721C81.389 105.721 79.4482 107.644 79.4482 110.016C79.4482 112.389 81.389 114.312 83.7832 114.312Z" fill="#3947F2"/>
<path d="M56.0968 47.5372C55.3165 48.6412 54.0463 49.2813 52.8239 49.8827C48.8097 51.8587 44.794 53.8333 40.777 55.8065L40.9937 56.0643L41.1454 56.249L41.3578 56.4982C40.2524 57.9673 39.147 59.4351 38.0416 60.9013C37.7511 61.2837 37.465 61.6703 37.1746 62.0526V38.1079C37.465 37.992 37.7511 37.876 38.0416 37.7643C40.803 36.6646 43.5629 35.5677 46.3214 34.4737C47.7563 33.9067 49.2822 33.3267 50.7994 33.5888C53.8556 34.1129 55.2774 37.5624 56.1618 40.5093C56.8597 42.8376 57.5013 45.5439 56.0968 47.5372Z" fill="white"/>
<path d="M41.6223 56.6913C40.4302 58.2765 39.2366 59.863 38.0416 61.4511C37.7511 61.8334 37.465 62.22 37.1746 62.6023V61.5069C37.465 61.1246 37.7555 60.7379 38.0416 60.3556C39.0603 59.0067 40.0761 57.6579 41.0891 56.309C41.1056 56.2869 41.1245 56.2668 41.1454 56.2489C41.4142 56.0255 41.8607 56.3734 41.6223 56.6913Z" fill="#CCCCCC"/>
<path d="M56.6213 47.3137C55.9537 48.5166 54.7659 49.2597 53.5695 49.874C52.204 50.5742 50.8124 51.2358 49.4339 51.9145C46.6162 53.2978 43.8028 54.681 40.9937 56.0642C40.9677 56.0771 40.9373 56.09 40.9113 56.1029C40.5299 56.2919 40.1397 55.0719 40.5602 54.4834C42.2292 52.1465 47.895 51.9446 50.5393 50.643C51.2069 50.3122 51.8745 49.9858 52.5464 49.655C53.1616 49.3706 53.7594 49.0507 54.3368 48.697C55.3803 48.0921 56.1418 47.1045 56.4566 45.9477C56.6728 44.8629 56.6477 43.7443 56.3829 42.67C56.1401 41.5059 55.8142 40.3603 55.4075 39.242C54.6445 37.1027 53.4091 34.4952 50.9468 33.9453C49.785 33.6876 48.5972 33.984 47.5048 34.3706C46.2303 34.826 44.9775 35.3586 43.7204 35.8569C41.826 36.6087 39.9331 37.3605 38.0416 38.1122C37.7511 38.2282 37.465 38.3399 37.1746 38.4559V37.7557C37.465 37.6397 37.7511 37.5237 38.0416 37.4077C40.4518 36.454 42.8635 35.4975 45.2767 34.5381C46.4642 33.9979 47.7048 33.5804 48.9787 33.2923C50.1947 33.0569 51.4555 33.2692 52.5247 33.8894C53.5928 34.5953 54.4529 35.5692 55.0174 36.7118C55.6357 37.9056 56.1281 39.1594 56.4869 40.4534C57.1371 42.6271 57.7961 45.1959 56.6213 47.3137Z" fill="#CCCCCC"/>
<path d="M40.8994 41.9361C40.8959 41.9442 40.8929 41.9523 40.8894 41.9604C40.2753 41.707 39.5854 41.7027 38.968 41.9482C38.3506 42.1937 37.8552 42.6695 37.5882 43.2733C37.3204 43.8792 37.3041 44.5652 37.5429 45.1829C37.7817 45.8006 38.2564 46.3003 38.8642 46.5737L38.8639 46.5745L38.8951 46.5881L43.5159 48.5942L45.554 43.9843L45.5407 43.9785C45.5442 43.9708 45.548 43.9635 45.5514 43.9558C45.8217 43.3445 45.8359 42.6518 45.5908 42.0302C45.3457 41.4085 44.8614 40.9088 44.2445 40.641C43.939 40.5083 43.6102 40.4366 43.2768 40.43C42.9434 40.4233 42.6119 40.4817 42.3013 40.602C41.9907 40.7223 41.707 40.902 41.4664 41.1309C41.2259 41.3598 41.0332 41.6334 40.8994 41.9361Z" fill="#3947F2"/>
<path d="M226.825 129.651C226.548 129.067 226.262 128.474 225.958 127.877C224.87 125.699 223.635 123.422 222.321 121.137C218.71 114.822 214.518 108.421 211.22 103.816V103.812C209.889 101.952 208.701 100.392 207.756 99.2411C207.17 98.5257 206.446 97.9324 205.627 97.4955C204.809 97.0587 203.911 96.7869 202.985 96.6958C202.06 96.6047 201.125 96.6962 200.236 96.9649C199.346 97.2336 198.519 97.6743 197.802 98.2615C197.085 98.8487 196.493 99.5707 196.06 100.386C195.626 101.201 195.359 102.093 195.276 103.011C195.192 103.929 195.292 104.854 195.571 105.733C195.85 106.613 196.302 107.428 196.901 108.133L207.595 124.23L212.628 131.807L216.729 137.985L202.658 144.415L200.356 145.468L193.572 148.569L193.533 148.587C193.52 148.578 193.502 148.569 193.489 148.561C193.155 148.359 192.804 148.185 192.44 148.041C191.543 147.69 190.582 147.531 189.618 147.573C188.906 147.602 188.202 147.743 187.533 147.99C186.413 148.4 185.419 149.092 184.651 149.998C183.882 150.904 183.365 151.993 183.151 153.157C183.12 153.295 183.103 153.437 183.086 153.583C183.082 153.604 183.08 153.626 183.081 153.647H183.077C182.93 155.026 183.209 156.417 183.878 157.636C184.547 158.854 185.574 159.842 186.822 160.469C186.909 160.512 186.996 160.555 187.087 160.593C187.52 160.789 187.973 160.938 188.439 161.036C189.021 161.162 189.617 161.213 190.212 161.186C190.766 161.162 191.314 161.073 191.847 160.92H191.851C192.156 160.831 192.454 160.722 192.744 160.593C193.695 160.165 194.535 159.528 195.202 158.731C195.869 157.934 196.345 156.998 196.593 155.993C196.871 155.958 197.183 155.915 197.525 155.868C198.228 155.769 199.06 155.645 200.001 155.494C200.373 155.434 200.764 155.37 201.167 155.301C208.215 154.098 219.733 151.538 225.958 147.01C226.262 146.787 226.552 146.563 226.825 146.336V129.651Z" fill="#A0616A"/>
<path d="M214.796 0H49.2041C46.0149 0.00377549 42.9573 1.26092 40.7022 3.49569C38.447 5.73045 37.1784 8.76035 37.1746 11.9208V185.084C37.1786 188.244 38.4474 191.273 40.7026 193.507C42.9579 195.741 46.0153 196.997 49.2041 197H214.796C217.985 196.997 221.042 195.741 223.297 193.507C225.553 191.273 226.821 188.244 226.825 185.084V11.9208C226.822 8.76035 225.553 5.73045 223.298 3.49569C221.043 1.26093 217.985 0.00378003 214.796 0ZM225.958 185.084C225.954 188.016 224.777 190.826 222.684 192.899C220.592 194.972 217.755 196.138 214.796 196.141H49.2041C46.2453 196.138 43.4084 194.972 41.3157 192.899C39.2231 190.826 38.0456 188.016 38.0416 185.084V11.9208C38.0447 8.98801 39.2218 6.17624 41.3145 4.10246C43.4072 2.02868 46.2446 0.862264 49.2041 0.859155H214.796C217.755 0.862264 220.593 2.02868 222.686 4.10246C224.778 6.17624 225.955 8.98801 225.958 11.9208V185.084ZM37.1746 27.8538V168.931H38.0416V27.8538H37.1746Z" fill="#3F3D56"/>
<path d="M52.9322 164.528C56.7628 164.528 59.8682 161.451 59.8682 157.655C59.8682 153.859 56.7628 150.782 52.9322 150.782C49.1016 150.782 45.9962 153.859 45.9962 157.655C45.9962 161.451 49.1016 164.528 52.9322 164.528Z" fill="#3947F2"/>
<path d="M51.8797 161.358C51.8192 161.358 51.7594 161.346 51.7036 161.323C51.6204 161.29 51.5492 161.233 51.4994 161.159C51.4496 161.085 51.4235 160.998 51.4244 160.909V154.582C51.4244 154.493 51.4509 154.407 51.5006 154.333C51.5503 154.259 51.621 154.202 51.7036 154.168C51.7863 154.134 51.8772 154.125 51.965 154.142C52.0527 154.16 52.1333 154.202 52.1966 154.265L55.3889 157.429C55.4736 157.513 55.5212 157.627 55.5212 157.745C55.5212 157.864 55.4736 157.978 55.3889 158.062L52.1966 161.226C52.1552 161.268 52.1059 161.301 52.0516 161.324C51.9972 161.346 51.9387 161.358 51.8797 161.358Z" fill="white"/>
<path d="M194.295 55.4357C198.604 55.4357 202.098 51.9738 202.098 47.7033C202.098 43.4329 198.604 39.9709 194.295 39.9709C189.986 39.9709 186.492 43.4329 186.492 47.7033C186.492 51.9738 189.986 55.4357 194.295 55.4357Z" fill="#2F2E41"/>
<path d="M194.358 58.905C190.633 56.7589 189.611 51.8593 191.904 48.2436C192.449 47.3839 193.16 46.639 193.996 46.0516C194.832 45.4641 195.776 45.0455 196.775 44.8196C197.774 44.5938 198.808 44.5652 199.819 44.7354C200.829 44.9056 201.795 45.2713 202.663 45.8117C206.312 48.0842 203.572 52.4865 205.117 56.4731C207.303 62.1127 199.383 61.7993 194.358 58.905Z" fill="#2F2E41"/>
<path d="M176.241 56.512C175.97 57.1382 167.608 57.0711 167.225 57.6287C164.273 61.9338 174.916 80.2508 171.964 84.5614L171.552 85.0472C172.516 84.6073 173.441 84.09 174.319 83.5005C174.398 81.7361 174.477 79.966 174.561 78.2016C175.446 79.3227 176.16 80.5662 176.68 81.8924C177.367 81.4122 177.931 80.522 180.878 78.7711C182.071 77.4725 183.446 76.3508 184.961 75.4403L176.241 56.512Z" fill="#2F2E41"/>
<path d="M180.386 76.8251C188.029 76.8251 194.225 70.685 194.225 63.1109C194.225 55.5368 188.029 49.3967 180.386 49.3967C172.743 49.3967 166.546 55.5368 166.546 63.1109C166.546 70.685 172.743 76.8251 180.386 76.8251Z" fill="#A0616A"/>
<path d="M190.897 82.8671C189.77 81.934 188.985 80.6581 188.665 79.2377C188.409 80.9623 188.476 82.7188 188.863 84.4194C188.113 84.9778 187.386 85.5082 186.699 85.9884C186.178 84.6622 185.465 83.4187 184.58 82.2976C184.496 84.062 184.417 85.8321 184.338 87.5965C183.46 88.186 182.535 88.7033 181.571 89.1432L181.983 88.6575C184.935 84.3468 177.295 76.4124 180.247 72.1073C181.076 70.9012 177.334 61.3698 174.483 60.9398C171.947 60.5601 172.054 61.286 169.598 61.8164C169.343 60.762 168.946 59.7461 168.42 58.7956C168.56 59.8548 168.528 60.9294 168.324 61.9784C167.451 62.0119 166.764 61.4604 165.834 61.3195C159.9 60.4205 160.503 54.0607 162.154 52.0449C163.811 50.0348 169.31 49.4317 171.846 48.7784C172.077 48.5551 172.601 48.6947 172.832 48.4825C177.691 44.0755 184.19 43.3457 190.039 45.2989C196.276 47.382 200.165 51.4135 202.161 57.6286L202.733 62.6023C203.246 64.2015 202.6 71.6425 202.161 73.2631C200.45 79.5627 196.808 76.4179 190.897 82.8671Z" fill="#2F2E41"/>
</g>
<defs>
<clipPath id="clip0_269_1063">
<rect width="264" height="197" fill="white"/>
</clipPath>
</defs>
</svg>
