<svg width="266" height="188" viewBox="0 0 266 188" fill="none" xmlns="http://www.w3.org/2000/svg">
<g clip-path="url(#clip0_270_105)">
<path d="M235.023 188C251.742 188 265.296 184.705 265.296 180.641C265.296 176.576 251.742 173.281 235.023 173.281C218.303 173.281 204.749 176.576 204.749 180.641C204.749 184.705 218.303 188 235.023 188Z" fill="#3F3D56"/>
<path d="M129.018 25.2423V122.635C129.017 123.796 128.555 124.908 127.731 125.728C126.908 126.549 125.792 127.009 124.627 127.009H84.9575C84.3808 127.01 83.8095 126.898 83.2765 126.679C82.7435 126.459 82.2592 126.137 81.8513 125.731C81.4435 125.324 81.12 124.842 80.8996 124.311C80.6792 123.779 80.5662 123.21 80.5669 122.635V25.2423C80.5669 24.6676 80.6804 24.0986 80.9011 23.5676C81.1217 23.0367 81.4451 22.5543 81.8528 22.1479C82.2605 21.7415 82.7445 21.4192 83.2772 21.1993C83.8099 20.9794 84.3809 20.8662 84.9575 20.8662H90.8949V21.6255C90.8949 22.5812 91.2758 23.4977 91.9537 24.1734C92.6317 24.8492 93.5512 25.2288 94.51 25.2288H114.685C115.644 25.2288 116.564 24.8491 117.241 24.1734C117.919 23.4977 118.3 22.5812 118.3 21.6255V20.8662H124.627C125.204 20.866 125.775 20.9791 126.308 21.1989C126.841 21.4188 127.325 21.7411 127.732 22.1475C128.14 22.5539 128.464 23.0364 128.684 23.5674C128.905 24.0985 129.018 24.6676 129.018 25.2423Z" fill="#3947F2"/>
<path d="M127.281 37.144H82.3096V58.9763H127.281V37.144Z" fill="#3F3D56"/>
<path d="M100.416 52.135C101.593 56.4725 105.626 59.1588 105.626 59.1588C105.626 59.1588 107.749 54.8127 106.572 50.4752C105.395 46.1377 101.363 43.4514 101.363 43.4514C101.363 43.4514 99.239 47.7975 100.416 52.135Z" fill="white"/>
<path d="M102.146 51.2028C105.376 54.3371 105.771 59.1552 105.771 59.1552C105.771 59.1552 100.928 58.8916 97.6977 55.7574C94.4674 52.6231 94.0728 47.8049 94.0728 47.8049C94.0728 47.8049 98.9157 48.0685 102.146 51.2028Z" fill="#3947F2"/>
<path d="M111.126 52.135C109.949 56.4725 105.916 59.1588 105.916 59.1588C105.916 59.1588 103.793 54.8127 104.97 50.4752C106.147 46.1377 110.179 43.4514 110.179 43.4514C110.179 43.4514 112.303 47.7975 111.126 52.135Z" fill="white"/>
<path d="M109.396 51.2028C106.166 54.3371 105.771 59.1552 105.771 59.1552C105.771 59.1552 110.614 58.8916 113.844 55.7574C117.075 52.6231 117.469 47.8049 117.469 47.8049C117.469 47.8049 112.626 48.0685 109.396 51.2028Z" fill="#3947F2"/>
<path d="M123.259 71.2021H86.3318V73.2225H123.259V71.2021Z" fill="#F0F0F0"/>
<path d="M123.259 74.457H86.3318V76.4774H123.259V74.457Z" fill="#F0F0F0"/>
<path d="M123.259 77.7122H86.3318V79.7325H123.259V77.7122Z" fill="#F0F0F0"/>
<path d="M123.259 80.9673H86.3318V82.9877H123.259V80.9673Z" fill="#F0F0F0"/>
<path d="M111.82 98.378L103.6 92.5623L97.7654 100.755L105.985 106.57L111.82 98.378Z" fill="#F0F0F0"/>
<path d="M105.91 108.682C105.45 108.682 105.001 108.546 104.618 108.292C104.236 108.037 103.938 107.675 103.761 107.251C103.585 106.827 103.539 106.361 103.629 105.912C103.719 105.462 103.94 105.049 104.266 104.724C104.591 104.4 105.005 104.179 105.457 104.09C105.908 104.001 106.376 104.046 106.801 104.222C107.226 104.397 107.589 104.695 107.845 105.076C108.1 105.457 108.237 105.905 108.237 106.364C108.236 106.979 107.991 107.568 107.555 108.003C107.118 108.437 106.527 108.682 105.91 108.682ZM105.91 104.432C105.527 104.432 105.152 104.545 104.834 104.757C104.515 104.97 104.266 105.271 104.12 105.625C103.973 105.978 103.935 106.366 104.009 106.741C104.084 107.116 104.269 107.46 104.54 107.73C104.811 108 105.156 108.184 105.532 108.259C105.908 108.333 106.298 108.295 106.652 108.149C107.007 108.003 107.309 107.755 107.522 107.437C107.735 107.12 107.849 106.746 107.849 106.364C107.848 105.852 107.644 105.361 107.281 104.998C106.917 104.636 106.424 104.432 105.91 104.432Z" fill="#3F3D56"/>
<path d="M49.1547 4.37611V101.769C49.1542 102.929 48.6913 104.042 47.868 104.862C47.0447 105.682 45.9282 106.143 44.7641 106.143H5.09421C4.51752 106.144 3.9463 106.032 3.41329 105.812C2.88028 105.593 2.39595 105.271 1.98808 104.864C1.58021 104.458 1.2568 103.976 1.0364 103.444C0.815994 102.913 0.702927 102.344 0.703678 101.769V4.37611C0.703653 3.80143 0.8172 3.23236 1.03784 2.70142C1.25847 2.17047 1.58188 1.68805 1.98958 1.28168C2.39728 0.875318 2.8813 0.552976 3.414 0.333064C3.94669 0.113152 4.51763 -2.36098e-05 5.09421 2.31481e-07H11.0316V0.75931C11.0316 1.71496 11.4125 2.63147 12.0905 3.30721C12.7685 3.98296 13.688 4.36259 14.6468 4.3626H34.822C35.7808 4.36259 36.7003 3.98295 37.3783 3.30721C38.0562 2.63146 38.4371 1.71496 38.4371 0.75931V2.31481e-07H44.7641C45.3408 -0.000186726 45.9118 0.112877 46.4446 0.332731C46.9773 0.552585 47.4614 0.87492 47.8691 1.28132C48.2769 1.68771 48.6003 2.17021 48.8209 2.70123C49.0414 3.23224 49.1549 3.80138 49.1547 4.37611Z" fill="#F2F2F2"/>
<path d="M44.1226 53.18H5.354V18.5962H44.1226V53.18ZM5.74168 52.7936H43.7349V18.9826H5.74168V52.7936Z" fill="#3F3D56"/>
<path d="M5.67704 18.6452L5.41864 18.9333L43.7995 53.1307L44.0579 52.8426L5.67704 18.6452Z" fill="#3F3D56"/>
<path d="M43.7998 18.6455L5.41835 52.8423L5.67674 53.1304L44.0582 18.9336L43.7998 18.6455Z" fill="#3F3D56"/>
<path d="M43.9287 63.2266H5.54784V63.613H43.9287V63.2266Z" fill="#3F3D56"/>
<path d="M43.9287 66.7043H5.54784V67.0908H43.9287V66.7043Z" fill="#3F3D56"/>
<path d="M43.9287 70.1821H5.54784V70.5685H43.9287V70.1821Z" fill="#3F3D56"/>
<path d="M24.7383 73.6597H5.54784V74.0461H24.7383V73.6597Z" fill="#3F3D56"/>
<path d="M24.7383 77.1375H5.54784V77.5239H24.7383V77.1375Z" fill="#3F3D56"/>
<path d="M208.687 4.37611V101.769C208.687 102.929 208.224 104.042 207.401 104.862C206.577 105.682 205.461 106.143 204.297 106.143H164.627C164.05 106.144 163.479 106.032 162.946 105.812C162.413 105.593 161.929 105.271 161.521 104.864C161.113 104.458 160.789 103.976 160.569 103.444C160.349 102.913 160.236 102.344 160.236 101.769V4.37611C160.236 3.80143 160.35 3.23236 160.571 2.70142C160.791 2.17048 161.115 1.68805 161.522 1.28168C161.93 0.87532 162.414 0.552978 162.947 0.333066C163.479 0.113154 164.05 -2.29638e-05 164.627 2.33077e-07H170.564V0.75931C170.564 1.71496 170.945 2.63147 171.623 3.30721C172.301 3.98296 173.221 4.36259 174.179 4.3626H194.355C195.313 4.36259 196.233 3.98295 196.911 3.30721C197.589 2.63146 197.97 1.71496 197.97 0.75931V2.33077e-07H204.297C204.873 -0.00018737 205.444 0.112877 205.977 0.332731C206.51 0.552584 206.994 0.874919 207.402 1.28132C207.81 1.68771 208.133 2.1702 208.354 2.70122C208.574 3.23224 208.688 3.80138 208.687 4.37611Z" fill="#F2F2F2"/>
<path d="M203.849 49.8955H165.468V50.2819H203.849V49.8955Z" fill="#3F3D56"/>
<path d="M203.849 59.9421H165.468V60.3285H203.849V59.9421Z" fill="#3F3D56"/>
<path d="M203.849 69.9888H165.468V70.3752H203.849V69.9888Z" fill="#3F3D56"/>
<path d="M183.635 35.2273C187.115 35.2273 189.936 32.4153 189.936 28.9466C189.936 25.4779 187.115 22.666 183.635 22.666C180.155 22.666 177.333 25.4779 177.333 28.9466C177.333 32.4153 180.155 35.2273 183.635 35.2273Z" fill="#3947F2"/>
<path d="M196.871 48.1567H194.157V54.3393H196.871V48.1567Z" fill="#3947F2"/>
<path d="M173.028 58.01H170.314V64.1926H173.028V58.01Z" fill="#3947F2"/>
<path d="M188.923 67.8635H186.209V74.0461H188.923V67.8635Z" fill="#3947F2"/>
<path d="M184.462 35.9848C182.928 35.9848 181.429 35.5315 180.154 34.6823C178.879 33.8331 177.885 32.6262 177.298 31.214C176.712 29.8019 176.558 28.248 176.857 26.7488C177.156 25.2497 177.895 23.8727 178.979 22.7919C180.064 21.7111 181.445 20.975 182.949 20.6768C184.453 20.3786 186.012 20.5317 187.429 21.1166C188.846 21.7015 190.057 22.6921 190.909 23.963C191.761 25.2339 192.216 26.7281 192.216 28.2566C192.213 30.3055 191.396 32.2698 189.942 33.7187C188.488 35.1675 186.518 35.9824 184.462 35.9848ZM184.462 20.9147C183.005 20.9147 181.581 21.3453 180.37 22.152C179.158 22.9588 178.214 24.1054 177.657 25.4469C177.099 26.7885 176.953 28.2647 177.237 29.6889C177.522 31.113 178.223 32.4212 179.253 33.448C180.283 34.4748 181.596 35.174 183.025 35.4573C184.454 35.7406 185.935 35.5952 187.281 35.0395C188.627 34.4838 189.777 33.5428 190.587 32.3354C191.396 31.1281 191.828 29.7086 191.828 28.2565C191.826 26.31 191.049 24.4439 189.668 23.0675C188.287 21.6912 186.415 20.9169 184.462 20.9147Z" fill="#3F3D56"/>
<path d="M54.3921 51.0917L54.0125 51.4041L69.5669 70.1801L69.9465 69.8678L54.3921 51.0917Z" fill="#3F3D56"/>
<path d="M71.6482 72.3072C70.3582 71.562 68.5715 70.7906 67.1641 70.5591L69.5085 69.7243L70.7742 67.5881C70.7359 69.0093 71.1578 70.904 71.6482 72.3072Z" fill="#3F3D56"/>
<path d="M154.809 51.0901L139.258 69.8696L139.638 70.182L155.188 51.4024L154.809 51.0901Z" fill="#3F3D56"/>
<path d="M137.555 72.3073C138.045 70.9037 138.467 69.0091 138.428 67.5879L139.695 69.7244L142.039 70.5589C140.631 70.7903 138.844 71.5618 137.555 72.3073Z" fill="#3F3D56"/>
<path d="M250.898 92.6944C250.898 92.6944 250.898 128.511 245.237 141.512L232.192 170.705C232.192 170.705 223.824 170.214 223.332 166.78L233.177 136.361L239.084 118.453L240.561 90.4866L250.898 92.6944Z" fill="#2F2E41"/>
<path d="M242.776 93.6758L240.561 108.64L242.037 141.513L242.776 159.666C242.776 159.666 245.729 167.761 244.745 168.497L242.776 169.969C242.776 169.969 234.9 168.988 234.654 168.497C234.408 168.007 229.731 130.964 229.731 130.964C229.731 130.964 220.132 101.035 220.624 100.545C221.117 100.054 223.332 92.6946 223.332 92.6946L242.776 93.6758Z" fill="#2F2E41"/>
<path d="M244.499 167.516L245.483 173.158C245.483 173.158 248.191 184.688 245.483 184.688C242.776 184.688 237.853 181.499 237.607 179.537C237.361 177.574 238.099 168.743 238.099 168.743L244.499 167.516Z" fill="#2F2E41"/>
<path d="M231.946 169.479C231.946 169.479 233.915 173.404 235.146 173.894C236.376 174.385 241.981 177.594 238.686 179.669C235.392 181.744 231.946 179.782 231.946 179.782L220.624 173.649C220.624 173.649 222.101 167.516 224.316 167.025C226.531 166.535 231.946 169.479 231.946 169.479Z" fill="#2F2E41"/>
<path d="M229.485 38.4795C234.378 38.4795 238.345 34.5255 238.345 29.6481C238.345 24.7706 234.378 20.8167 229.485 20.8167C224.591 20.8167 220.624 24.7706 220.624 29.6481C220.624 34.5255 224.591 38.4795 229.485 38.4795Z" fill="#FFB8B8"/>
<path d="M236.869 30.384C236.869 30.384 238.592 41.6686 240.315 43.1405C242.037 44.6124 236.623 49.764 234.161 49.5187C231.7 49.2734 228.993 43.8764 228.993 43.8764C228.993 43.8764 229.731 36.7623 228.5 34.7997C227.27 32.8372 236.869 30.384 236.869 30.384Z" fill="#FFB8B8"/>
<path d="M234.9 44.8578L239.08 41.0117C240.425 42.6963 242.101 44.0887 244.006 45.1032C247.206 46.8204 237.853 64.4832 237.853 64.4832L222.84 45.8391C222.84 45.8391 227.615 42.6753 229.165 41.4361L234.9 44.8578Z" fill="#3F3D56"/>
<path d="M237.361 59.8222C237.361 59.8222 243.957 48.3612 243.243 44.647C243.243 44.647 252.867 47.0657 253.359 50.2548C253.851 53.4439 248.683 64.9738 248.683 64.9738C248.683 64.9738 252.867 94.1665 250.406 94.4118C247.944 94.6571 223.332 94.9024 222.84 93.6759C222.347 92.4493 223.332 88.7695 221.855 87.5429C220.378 86.3164 218.655 87.0523 219.394 85.0898C220.132 83.1272 223.332 80.6741 222.347 79.2022C221.363 77.7303 221.117 78.2209 221.363 77.2396C221.609 76.2584 220.871 63.2566 220.871 63.2566C220.871 63.2566 215.702 49.0282 216.933 48.047C218.163 47.0657 224.618 44.647 224.618 44.647L237.361 59.8222Z" fill="#3F3D56"/>
<path d="M257.051 98.0915C257.051 98.0915 256.313 107.904 252.129 107.414C247.944 106.923 252.867 96.3743 252.867 96.3743L257.051 98.0915Z" fill="#FFB8B8"/>
<path d="M220.378 97.8462C220.378 97.8462 221.855 103.734 223.578 103.243V96.3743L222.84 95.1477L220.378 97.8462Z" fill="#FFB8B8"/>
<path d="M236.712 30.9185C236.688 30.6644 236.601 30.4203 236.459 30.2083C236.315 30.0468 236.128 29.9289 235.92 29.8681C235.371 29.6986 234.779 29.7294 234.251 29.9551C233.723 30.1808 233.292 30.5867 233.037 31.0999C232.809 31.5939 232.7 32.2301 232.202 32.4501C231.622 32.7059 230.98 32.1614 230.752 31.5719C230.524 30.9825 230.518 30.3144 230.215 29.7599C229.855 29.1025 229.127 28.7149 228.392 28.5596C227.783 28.4309 227.038 28.3634 226.763 27.8065C226.674 27.5937 226.636 27.3632 226.652 27.1333C226.658 26.3133 226.807 25.5006 227.091 24.7313C224.68 24.2513 222.535 26.5967 220.077 26.6345C219.765 26.6526 219.454 26.5918 219.172 26.4578C218.626 26.1674 218.389 25.5236 218.225 24.9293C218.05 24.298 217.907 23.6594 217.794 23.0133L218.581 23.3733C218.362 22.9553 218.242 22.4926 218.231 22.021C218.637 21.9787 219.048 22.0133 219.441 22.1228L219.498 20.7161C220.107 21.485 221.32 21.2147 222.235 20.8588C224.001 20.1719 225.759 19.4285 227.613 19.0321C229.467 18.6357 231.454 18.6065 233.207 19.3266C235.049 20.0834 236.47 21.5884 237.721 23.1342C238.414 23.9911 239.085 24.8917 239.459 25.9274C239.927 27.3296 239.922 28.8461 239.444 30.2451C239.041 31.5046 238.291 33.028 237.281 33.9008C236.927 33.0093 236.879 31.8722 236.712 30.9185Z" fill="#2F2E41"/>
<path d="M219.886 47.3108L216.686 48.0467C216.686 48.0467 212.995 51.9718 212.748 55.6516C212.502 59.3313 212.502 77.7301 212.502 77.7301L217.179 92.9397C217.179 92.9397 216.686 96.3741 217.179 96.3741C217.671 96.3741 217.917 95.6382 217.917 96.6194C217.917 97.6007 216.686 96.6194 217.917 97.6007L220.378 99.5632L224.492 94.1275C224.492 94.1275 224.809 91.9584 224.07 91.4678C223.332 90.9772 223.332 90.7318 223.578 89.9959C223.824 89.2599 224.316 89.0146 224.07 88.524C223.824 88.0334 223.086 87.2974 223.086 86.8068C223.086 86.3161 223.086 85.8255 222.84 85.5802C222.593 85.3349 220.871 79.4473 220.871 79.4473L221.855 60.3126L219.886 47.3108Z" fill="#3F3D56"/>
<path d="M250.898 48.5376L253.359 49.7642C253.359 49.7642 257.297 61.5394 257.297 71.8427C257.297 82.146 258.036 89.0148 258.036 89.0148C258.036 89.0148 259.266 91.9586 258.774 91.9586C258.282 91.9586 257.789 91.9586 258.282 92.6946C258.774 93.4305 259.02 93.1852 258.774 93.9212C258.528 94.6571 258.282 93.4305 258.528 94.6571C258.774 95.8837 258.528 96.3743 258.036 96.3743C257.543 96.3743 257.543 99.5635 257.543 99.5635L251.636 97.3556C251.636 97.3556 252.621 96.129 252.375 95.6384C252.225 95.332 252.141 94.9977 252.129 94.6571C252.129 94.6571 253.359 94.4118 252.129 93.9212C250.898 93.4305 251.39 93.4305 251.636 91.9586C251.882 90.4867 252.621 90.7321 251.882 90.4867C251.144 90.2414 246.714 67.427 246.714 67.427L250.898 48.5376Z" fill="#3F3D56"/>
<path d="M234.896 45.6726C235.304 45.6726 235.634 45.3431 235.634 44.9366C235.634 44.5302 235.304 44.2007 234.896 44.2007C234.488 44.2007 234.158 44.5302 234.158 44.9366C234.158 45.3431 234.488 45.6726 234.896 45.6726Z" fill="#2F2E41"/>
<path d="M234.896 48.1257C235.304 48.1257 235.634 47.7962 235.634 47.3898C235.634 46.9833 235.304 46.6538 234.896 46.6538C234.488 46.6538 234.158 46.9833 234.158 47.3898C234.158 47.7962 234.488 48.1257 234.896 48.1257Z" fill="#2F2E41"/>
</g>
<defs>
<clipPath id="clip0_270_105">
<rect width="264.593" height="188" fill="white" transform="translate(0.703705)"/>
</clipPath>
</defs>
</svg>
