<svg width="264" height="131" viewBox="0 0 264 131" fill="none" xmlns="http://www.w3.org/2000/svg">
<g clip-path="url(#clip0_269_809)">
<path d="M151.376 128.199C149.742 128.198 148.176 127.546 147.021 126.388C145.866 125.23 145.217 123.659 145.217 122.022C145.217 120.384 145.866 118.814 147.021 117.656C148.176 116.498 149.742 115.846 151.376 115.845H242.929C242.469 114.998 241.789 114.291 240.961 113.798C240.134 113.305 239.189 113.044 238.227 113.044H56.2442C53.87 113.046 51.5939 113.993 49.9161 115.677C48.2383 117.36 47.296 119.643 47.2963 122.022C47.2975 124.401 48.2403 126.682 49.9178 128.365C51.5952 130.048 53.8704 130.996 56.2442 131H238.227C239.189 130.999 240.134 130.739 240.961 130.246C241.789 129.753 242.469 129.046 242.929 128.199L151.376 128.199Z" fill="#CCCCCC"/>
<path d="M243.051 119.248H156.005C155.872 119.248 155.744 119.195 155.65 119.1C155.556 119.006 155.503 118.878 155.503 118.744C155.503 118.611 155.556 118.483 155.65 118.388C155.744 118.294 155.872 118.24 156.005 118.24H243.051C243.184 118.24 243.312 118.294 243.406 118.388C243.5 118.483 243.553 118.611 243.553 118.744C243.553 118.878 243.5 119.006 243.406 119.1C243.312 119.195 243.184 119.248 243.051 119.248Z" fill="#CCCCCC"/>
<path d="M243.051 122.526H156.005C155.872 122.526 155.744 122.473 155.65 122.378C155.555 122.284 155.502 122.156 155.502 122.022C155.502 121.888 155.555 121.76 155.65 121.665C155.744 121.571 155.872 121.518 156.005 121.518H243.051C243.184 121.518 243.312 121.571 243.406 121.665C243.501 121.76 243.554 121.888 243.554 122.022C243.554 122.156 243.501 122.284 243.406 122.378C243.312 122.473 243.184 122.526 243.051 122.526Z" fill="#CCCCCC"/>
<path d="M243.051 125.803H156.005C155.872 125.803 155.744 125.75 155.65 125.655C155.556 125.561 155.503 125.433 155.503 125.299C155.503 125.166 155.556 125.038 155.65 124.943C155.744 124.849 155.872 124.795 156.005 124.795H243.051C243.184 124.795 243.312 124.849 243.406 124.943C243.5 125.038 243.553 125.166 243.553 125.299C243.553 125.433 243.5 125.561 243.406 125.655C243.312 125.75 243.184 125.803 243.051 125.803Z" fill="#CCCCCC"/>
<path d="M127.728 110.803C126.094 110.802 124.527 110.15 123.372 108.992C122.218 107.834 121.569 106.263 121.569 104.626C121.569 102.988 122.218 101.418 123.372 100.26C124.527 99.1015 126.094 98.4503 127.728 98.4492H219.281C218.82 97.602 218.141 96.8948 217.313 96.4019C216.486 95.9089 215.541 95.6484 214.579 95.6477H32.5961C30.2219 95.6504 27.9458 96.5975 26.268 98.281C24.5902 99.9645 23.6478 102.247 23.6481 104.626C23.6493 107.005 24.5921 109.286 26.2696 110.969C27.9471 112.652 30.2223 113.6 32.5961 113.604H214.579C215.541 113.603 216.486 113.343 217.313 112.85C218.141 112.357 218.82 111.65 219.281 110.803L127.728 110.803Z" fill="#C190FF"/>
<path d="M219.402 101.853H132.357C132.224 101.852 132.096 101.799 132.002 101.705C131.908 101.61 131.855 101.482 131.855 101.348C131.855 101.215 131.908 101.087 132.002 100.992C132.096 100.898 132.224 100.845 132.357 100.844H219.402C219.536 100.844 219.664 100.897 219.758 100.992C219.853 101.086 219.906 101.215 219.906 101.348C219.906 101.482 219.853 101.61 219.758 101.705C219.664 101.8 219.536 101.853 219.402 101.853Z" fill="#CCCCCC"/>
<path d="M219.402 105.13H132.357C132.224 105.13 132.096 105.077 132.001 104.983C131.907 104.888 131.854 104.76 131.854 104.626C131.854 104.492 131.907 104.364 132.001 104.27C132.096 104.175 132.224 104.122 132.357 104.122H219.402C219.536 104.122 219.664 104.175 219.758 104.27C219.853 104.364 219.906 104.492 219.906 104.626C219.906 104.76 219.853 104.888 219.758 104.983C219.664 105.077 219.536 105.13 219.402 105.13Z" fill="#CCCCCC"/>
<path d="M219.402 108.408H132.357C132.224 108.407 132.096 108.354 132.002 108.26C131.908 108.165 131.855 108.037 131.855 107.903C131.855 107.77 131.908 107.642 132.002 107.547C132.096 107.453 132.224 107.399 132.357 107.399H219.402C219.469 107.399 219.534 107.412 219.595 107.437C219.657 107.462 219.712 107.5 219.759 107.546C219.806 107.593 219.843 107.649 219.868 107.71C219.894 107.771 219.907 107.837 219.907 107.903C219.907 107.97 219.894 108.035 219.868 108.097C219.843 108.158 219.806 108.214 219.759 108.26C219.712 108.307 219.657 108.344 219.595 108.37C219.534 108.395 219.469 108.408 219.402 108.408Z" fill="#CCCCCC"/>
<path d="M104.08 92.8266C102.446 92.8255 100.879 92.1742 99.7244 91.016C98.5694 89.8577 97.9206 88.2873 97.9206 86.6499C97.9206 85.0124 98.5694 83.442 99.7244 82.2837C100.879 81.1255 102.446 80.4742 104.08 80.4731H195.633C195.172 79.626 194.493 78.9188 193.665 78.4258C192.838 77.9329 191.893 77.6724 190.931 77.6716H8.94791C6.57366 77.6743 4.29758 78.6214 2.61978 80.3049C0.94198 81.9884 -0.000295403 84.2705 6.94684e-08 86.6498C0.00120128 89.0287 0.943957 91.3099 2.62143 92.9931C4.29891 94.6762 6.57412 95.6239 8.94791 95.628H190.931C191.893 95.6273 192.838 95.3668 193.665 94.8738C194.493 94.3809 195.172 93.6737 195.633 92.8266L104.08 92.8266Z" fill="#CCCCCC"/>
<path d="M195.754 83.8766H108.709C108.576 83.8763 108.448 83.823 108.354 83.7285C108.26 83.634 108.207 83.5059 108.207 83.3724C108.207 83.2389 108.26 83.1108 108.354 83.0163C108.448 82.9217 108.576 82.8685 108.709 82.8682H195.754C195.888 82.8682 196.016 82.9213 196.11 83.0159C196.204 83.1104 196.257 83.2387 196.257 83.3724C196.257 83.5061 196.204 83.6344 196.11 83.7289C196.016 83.8235 195.888 83.8766 195.754 83.8766Z" fill="#CCCCCC"/>
<path d="M195.754 87.154H108.709C108.643 87.154 108.577 87.1409 108.516 87.1156C108.455 87.0902 108.4 87.0531 108.353 87.0063C108.306 86.9595 108.269 86.9039 108.244 86.8427C108.219 86.7815 108.206 86.716 108.206 86.6497C108.206 86.5835 108.219 86.5179 108.244 86.4568C108.269 86.3956 108.306 86.34 108.353 86.2932C108.4 86.2464 108.455 86.2092 108.516 86.1839C108.577 86.1586 108.643 86.1455 108.709 86.1455H195.754C195.82 86.1455 195.886 86.1586 195.947 86.1839C196.008 86.2092 196.063 86.2464 196.11 86.2932C196.157 86.34 196.194 86.3956 196.219 86.4568C196.244 86.5179 196.257 86.5835 196.257 86.6497C196.257 86.716 196.244 86.7815 196.219 86.8427C196.194 86.9039 196.157 86.9595 196.11 87.0063C196.063 87.0531 196.008 87.0902 195.947 87.1156C195.886 87.1409 195.82 87.154 195.754 87.154Z" fill="#CCCCCC"/>
<path d="M195.754 90.4315H108.709C108.576 90.4315 108.448 90.3784 108.353 90.2838C108.259 90.1893 108.206 90.061 108.206 89.9273C108.206 89.7936 108.259 89.6653 108.353 89.5708C108.448 89.4762 108.576 89.4231 108.709 89.4231H195.754C195.82 89.4231 195.886 89.4361 195.947 89.4615C196.008 89.4868 196.063 89.524 196.11 89.5708C196.157 89.6176 196.194 89.6732 196.219 89.7344C196.244 89.7955 196.257 89.8611 196.257 89.9273C196.257 89.9935 196.244 90.0591 196.219 90.1203C196.194 90.1815 196.157 90.237 196.11 90.2838C196.063 90.3307 196.008 90.3678 195.947 90.3932C195.886 90.4185 195.82 90.4315 195.754 90.4315Z" fill="#CCCCCC"/>
<path d="M197.764 54.478C197.287 54.4773 196.828 54.2948 196.479 53.9674C196.131 53.6401 195.92 53.1924 195.889 52.7149L195.61 48.4406C195.577 47.9413 195.743 47.4495 196.073 47.0734C196.402 46.6972 196.867 46.4676 197.365 46.4348L230.781 44.2418C231.308 44.2072 231.836 44.2769 232.336 44.447C232.836 44.6171 233.297 44.8841 233.694 45.233C234.091 45.5818 234.416 46.0055 234.649 46.4799C234.882 46.9544 235.02 47.4703 235.055 47.9982C235.089 48.526 235.02 49.0555 234.85 49.5564C234.68 50.0573 234.414 50.5199 234.066 50.9176C233.718 51.3153 233.295 51.6404 232.821 51.8743C232.348 52.1082 231.833 52.2464 231.306 52.281L197.89 54.4739C197.848 54.4766 197.806 54.478 197.764 54.478Z" fill="#C190FF"/>
<path d="M204.354 55.0291C203.867 55.0283 203.399 54.8388 203.049 54.5002C202.698 54.1617 202.492 53.7004 202.473 53.213L202.235 46.8287C202.226 46.5812 202.265 46.3342 202.351 46.102C202.438 45.8697 202.568 45.6567 202.736 45.4752C202.905 45.2936 203.107 45.147 203.332 45.0437C203.556 44.9404 203.799 44.8825 204.046 44.8733L231.525 43.8441C232.024 43.8254 232.51 44.0061 232.876 44.3465C233.242 44.6868 233.458 45.1588 233.477 45.6588L233.715 52.043C233.724 52.2906 233.684 52.5375 233.598 52.7698C233.512 53.002 233.382 53.215 233.213 53.3966C233.045 53.5782 232.843 53.7248 232.618 53.8281C232.394 53.9313 232.151 53.9892 231.904 53.9985L204.425 55.0277C204.401 55.0287 204.377 55.0291 204.354 55.0291Z" fill="#2F2E41"/>
<path d="M236.555 113.88H232.28C231.781 113.879 231.303 113.68 230.95 113.327C230.597 112.973 230.398 112.494 230.398 111.993V76.2924C230.398 75.7923 230.597 75.3128 230.95 74.9592C231.303 74.6055 231.781 74.4066 232.28 74.406H236.555C237.054 74.4066 237.532 74.6055 237.885 74.9592C238.238 75.3128 238.436 75.7923 238.437 76.2924V111.993C238.436 112.494 238.238 112.973 237.885 113.327C237.532 113.68 237.054 113.879 236.555 113.88Z" fill="#2F2E41"/>
<path d="M217.582 95.0086L213.927 92.7882C213.5 92.5285 213.194 92.1098 213.075 91.6241C212.956 91.1383 213.035 90.6252 213.293 90.1972L231.759 59.6668C232.018 59.2394 232.436 58.9325 232.921 58.8134C233.405 58.6943 233.917 58.7727 234.345 59.0314L238 61.2518C238.426 61.5115 238.733 61.9302 238.851 62.4159C238.97 62.9017 238.892 63.4148 238.634 63.8428L220.168 94.3732C219.909 94.8006 219.491 95.1075 219.006 95.2267C218.521 95.3458 218.009 95.2673 217.582 95.0086Z" fill="#2F2E41"/>
<path d="M230.063 37.1482C238.22 37.1482 244.832 30.5215 244.832 22.347C244.832 14.1726 238.22 7.5459 230.063 7.5459C221.906 7.5459 215.293 14.1726 215.293 22.347C215.293 30.5215 221.906 37.1482 230.063 37.1482Z" fill="#C190FF"/>
<path d="M222.068 27.4005C221.593 27.2441 221.157 26.9875 220.789 26.6481C220.545 26.4057 220.357 26.1129 220.238 25.7901C220.119 25.4673 220.072 25.1223 220.1 24.7794C220.116 24.535 220.187 24.2976 220.31 24.0856C220.432 23.8735 220.601 23.6927 220.805 23.5572C221.333 23.2177 222.039 23.2167 222.759 23.5343L222.731 17.7562L223.311 17.7534L223.343 24.5462L222.896 24.2649C222.379 23.9393 221.64 23.71 221.118 24.0458C220.989 24.1345 220.882 24.2519 220.805 24.3887C220.729 24.5256 220.685 24.6783 220.677 24.8349C220.657 25.0904 220.693 25.347 220.781 25.5875C220.87 25.8279 221.009 26.0464 221.189 26.2282C221.828 26.8404 222.762 27.0319 223.826 27.203L223.734 27.776C223.168 27.701 222.611 27.5753 222.068 27.4005Z" fill="#2F2E41"/>
<path d="M216.761 17.4644L216.685 18.0398L219.778 18.4491L219.853 17.8737L216.761 17.4644Z" fill="#2F2E41"/>
<path d="M226.523 18.7559L226.447 19.3313L229.539 19.7406L229.615 19.1652L226.523 18.7559Z" fill="#2F2E41"/>
<path d="M242.395 85.8711H217.49C216.837 85.8703 216.211 85.6102 215.75 85.1477C215.288 84.6853 215.029 84.0582 215.028 83.4042L220.242 43.3354C220.246 42.6843 220.507 42.0614 220.968 41.6027C221.429 41.144 222.053 40.8867 222.703 40.8872H231.541C235.071 40.8912 238.456 42.2984 240.952 44.8001C243.449 47.3017 244.853 50.6936 244.857 54.2315V83.4042C244.856 84.0582 244.597 84.6853 244.135 85.1477C243.674 85.6102 243.048 85.8703 242.395 85.8711Z" fill="#2F2E41"/>
<path d="M263.823 70.0823C263.977 70.4123 264.032 70.7798 263.983 71.1405C263.933 71.5013 263.78 71.84 263.543 72.1158L260.748 75.3572C260.587 75.5446 260.39 75.6984 260.169 75.8096C259.948 75.9208 259.708 75.9873 259.461 76.0053C259.214 76.0234 258.967 75.9925 258.732 75.9146C258.497 75.8367 258.28 75.7133 258.093 75.5513L232.753 53.6116C232.354 53.2659 232.026 52.8446 231.789 52.3719C231.552 51.8992 231.41 51.3843 231.371 50.8567C231.333 50.329 231.399 49.7989 231.565 49.2967C231.73 48.7945 231.994 48.3299 232.339 47.9296C232.684 47.5293 233.104 47.201 233.576 46.9635C234.048 46.726 234.562 46.584 235.088 46.5456C235.615 46.5071 236.144 46.573 236.645 46.7394C237.146 46.9058 237.609 47.1696 238.009 47.5155L263.349 69.4551C263.55 69.6282 263.711 69.842 263.823 70.0823Z" fill="#C190FF"/>
<path d="M258.23 62.8421C258.384 63.1721 258.439 63.5395 258.39 63.9003C258.34 64.2611 258.187 64.5997 257.95 64.8756L253.177 70.412C252.85 70.79 252.387 71.0228 251.889 71.0592C251.392 71.0956 250.9 70.9326 250.522 70.6061L229.714 52.5905C229.527 52.4285 229.373 52.2312 229.262 52.0099C229.151 51.7885 229.085 51.5474 229.067 51.3003C229.049 51.0533 229.08 50.805 229.158 50.5699C229.235 50.3347 229.358 50.1172 229.52 49.9297L234.293 44.3934C234.455 44.2059 234.652 44.0522 234.872 43.941C235.093 43.8298 235.334 43.7633 235.58 43.7452C235.827 43.7272 236.075 43.758 236.309 43.8359C236.544 43.9138 236.761 44.0373 236.948 44.1993L257.756 62.2149C257.957 62.3881 258.118 62.6018 258.23 62.8421Z" fill="#2F2E41"/>
<path d="M230.339 13.5685C228.365 11.9311 225.725 13.4797 223.492 13.2599C221.356 13.0496 219.637 11.1657 219.168 9.13844C218.622 6.77327 219.807 4.37073 221.591 2.85561C223.546 1.19619 226.171 0.680524 228.672 0.933034C231.538 1.22244 234.179 2.50865 236.557 4.07995C238.851 5.54833 240.968 7.27778 242.865 9.23382C244.566 11.0452 246.018 13.2151 246.516 15.6866C246.968 17.9327 246.703 20.4363 245.409 22.3709C244.723 23.363 243.793 24.161 242.709 24.688C241.579 25.2707 240.371 25.6949 239.278 26.3503C237.627 27.3412 236.041 29.3607 236.604 31.4202C236.724 31.8702 236.953 32.2835 237.271 32.6238C237.653 33.0324 238.316 32.4702 237.934 32.0605C237.262 31.3409 237.269 30.3641 237.603 29.4833C238.002 28.4904 238.725 27.6626 239.654 27.1354C240.798 26.4509 242.066 26.0178 243.24 25.3918C244.364 24.819 245.333 23.9826 246.065 22.9538C247.445 20.9516 247.821 18.373 247.454 16.0012C247.057 13.4345 245.694 11.1212 244.003 9.19313C242.162 7.09485 239.917 5.33177 237.628 3.7531C235.171 2.05916 232.466 0.639019 229.493 0.163351C226.916 -0.24898 224.137 0.0879874 221.918 1.53337C219.846 2.88253 218.281 5.16532 218.169 7.68496C218.134 8.83109 218.403 9.96605 218.951 10.973C219.498 11.98 220.303 12.8227 221.283 13.4143C222.289 13.9914 223.449 14.2377 224.602 14.1184C225.834 14.0157 227.062 13.6135 228.306 13.695C228.868 13.7185 229.408 13.9251 229.843 14.2836C230.274 14.6413 230.767 13.9233 230.339 13.5685Z" fill="#2F2E41"/>
<path d="M212.972 90.7129C212.977 90.6801 212.983 90.6475 212.99 90.6148C213.042 90.3724 213.141 90.1427 213.282 89.9389C213.422 89.7351 213.602 89.5612 213.81 89.4275L217.402 87.1057C217.822 86.8351 218.331 86.7424 218.819 86.8479C219.307 86.9534 219.733 87.2485 220.004 87.6685L231.085 104.884C231.355 105.305 231.448 105.816 231.343 106.305C231.238 106.794 230.943 107.221 230.523 107.492L226.931 109.814C226.511 110.084 226.002 110.177 225.514 110.072C225.026 109.966 224.6 109.671 224.329 109.251L213.248 92.0353C212.995 91.6443 212.897 91.1728 212.972 90.7129Z" fill="#2F2E41"/>
</g>
<defs>
<clipPath id="clip0_269_809">
<rect width="264" height="131" fill="white"/>
</clipPath>
</defs>
</svg>
